<mxfile host="app.diagrams.net" agent="Mozilla/5.0 (Windows NT 10.0; Win64; x64; rv:132.0) Gecko/20100101 Firefox/132.0" version="24.8.3">
  <diagram name="Page-1" id="GrDuM_pSMW57swYO24qh">
    <mxGraphModel dx="2440" dy="1334" grid="1" gridSize="10" guides="1" tooltips="1" connect="1" arrows="1" fold="1" page="1" pageScale="1" pageWidth="1280" pageHeight="720" math="0" shadow="0">
      <root>
        <mxCell id="0" />
        <mxCell id="1" parent="0" />
        <mxCell id="6Hgkl4rPXNiPrs-pAOjM-13" value="" style="whiteSpace=wrap;html=1;fillColor=default;" vertex="1" parent="1">
          <mxGeometry x="360" y="240" width="1830" height="960" as="geometry" />
        </mxCell>
        <mxCell id="6Hgkl4rPXNiPrs-pAOjM-1" value="" style="shape=image;verticalLabelPosition=bottom;labelBackgroundColor=default;verticalAlign=top;aspect=fixed;imageAspect=0;image=data:image/png,iVBORw0KGgoAAAANSUhEUgAABbsAAALVCAYAAADppjwrAAAgAElEQVR4XuzdYXriurJGYTKmHtPBPaTGZ0w9Jl8cDtcQkDCNESXpzb/9bBLshVz11ZIbf03TbhqG/S718+vXr+T/m//H379/s//f7+OXWyDWj+sntz7UD/VD/UgTUD/VT/UzTUD/0D/0D/0jRUD/1D/1T/2T/7pPQH6Sn1rJT19kt2av2Wv2mr1mf4+AsCPstBJ27p0H2SH/yD/yj/wj/8g/twTkP/lP/rNZaLPwPgHzQz3zA9ntznR35mcICHvCnrAn7Al7wh5ZfktA2K8n7Fu/1u9PAq5f16/NPpt9Nvts9tnss9n3k0BL/ovsJrvJbrI7SaClYmfYN+wb9q8JkB1kB9lBdpAdZAfZQXa0LDvkf/lf/pf/LwmYf/qZf76OH/y03/vObmFf2Bf2hX1h/5qAzQ7/siEnQ4XFfsIiWUAWkAVkAVmwEND/9D+bxTaL+SP+iD+K7Y/Ibnd253r1juwiu8iuNAHDjmHHsGPYMewYdgw7sYcdmzU2a2zW2KyxWWOz5kzA/GZ+M7/1Mb+R3WQ32Z0hQPaT/WQ/2Z8iICwLy8JyH2GZLCVLyVKylCwlS8nSEwH5V/6Vf+XfFIFI/ozsJrvJbrI7SSBSsSIbyAaygWwgG8gGsoFsIFvIJrKNbCPbyLYaZJv51fxqfv3c/Pr9gMpxPCSrpTAhTAgTwoQwcZ+AzQB3/ufqo/6pf+qf+qf+qX/eIyA/yA/yQ5qA/CQ/yU/yk/wkP72an8juX8KWsCVspQgIm8KmsClsCpvC5qth0+/fEiA75W/5W/6Wv+8TMH+YP8wf5g/zh/nj1fmB7Ca7c73Ed3L5mpvs+jCsG9YN64Z1w7ph/R4BsoKsICvICrKCrHhVVvh9m6U/CZg/zZ/mT/PnmvmT7Ca7ye4MAcO6Yd2wblg3rBvWDduGbcP2NQGygWwgG8iGNbJB/9Q/9U/985KA/CA/lMoP3w+oPBx8Z7dmfZ8A2Uv2kr1kL9lL9hpWDauGVcOqYXUhYFg3rJca1vVf/Vf/1X/1X/33TED+WJ8/yG53dueymq8x8TUm2fWh2K4vtoYVw4phxbBiWDGsGFZOBOQH+YEsThNws5GbjXLXh/qpfqqf6meKgP6x9A+ym+wmuzMEFAthU9hMExC2hW1hW9gWtu8TkB/kB/lBfkgRkJ/kJ/lJfpKf5Kd7BOTH7fIj2U12k91kd5KAYrtdsb0H2bBj2DHsGHYMO4Ydw84tAflD/rBZYLPAZsF9AuYH84P5wfxgfng8P3w/oHIY9snVopgqpoqpYqqYPi6mZPYtAf1D/9A/9A/9Q/8g88n8nwRsZtjMsJlhM8Nmhs0M87P5+SeBLf0B2e07mXNZw3cquvM/uz4MK4YVw4phxbBiWDGsGFbeOayQ5WQ5WX5NQP6Wv+Vv+Vv+lr/l73z+JrvJbrI7Q2DLnSXDmmHNsGZYuyRgWDWsGlYNq4ZVw6ph1WaRzaJrAuYv/zIwl4/kZ/lZfpaf1+RnspvsJrvJ7iQBYVPYFDbTBIRtYVvYFrbXhG2b3Ta7bXbb7LbZvRCQn+Qn+Ul+kp9s9r97s//7AZX7ve/sdrG52N59sRl2DbuGXcOuYdeweyZg2DfsG/YN++YP84f545aAm23cbJPrj/KT/CQ/yU9r8hPZ7c7uXK3wnd2+szu7PoQNYUPYEDbWhA2bfTb7bPbZ7LPZZ7PPZt+JgPwsP8vP8rP8bLPTZud7NzvJbrKb7M4QcGeBOwvcWZAmYFgzrBnWDGuGNcOaYe29w5rNQpuFNgttFtostFlos9Bmoc3S5zaLyW6ym+wmu5MEyH6yn+wn+1MEbHbY7LDZYbPDZofNDpsdNjt+EjA/mB/MD+YH88N9AuancvPT9wMqx/GQvBp9GOU+DHduuHPDnRvu3HDnhjs33Lnhzg13bjx354b8JD/JT/KT/CQ/yU/yk/wkP/GX/OW5F5DdvpM5t/HqO+Xc+Z9dH+7ccOeGOzfcueHODXdukM1kM9lMNpPNZDPZTDaTzWQz2Uw25/xASX9EdpPdZHeGgGKtWEcp1veOo2Sz8P63BPC32WOzx2aPzR6bPTZ7bPbY7LHZY7PHZo/NHps9NntibfaQ3WQ32U12JwmQ/WQ/2Z8mQHaT3WQ32U12k91kN9lNdpPdZDfZTXaT3WR3MNl9/ECmw8F3dhtWDCuGFcOKYcWwYlgxrBhWDCuGlVjDyr18ZrPRZqPNRpuN5nfzu/nd/G5+N7+n5vcvsltYFBaFRWFRWBQWhUVhUVi02WOzx2aPzR6bPTZ7/MtO/7Iz5wdsNvJH/BF/VIM/Irt9jUmuVnlApQdUZteHsCPsCDvCTg1h594xql/ql/qlfqlfNvtt9tvst9lvs99mv81+m/3tbfaT3WQ32Z0h4M4Gdza4syFNgCwkC8lCspAsJAvJQrKQLCQLyUKykCxsTxa6WeSWgPm3nvn3+wGVw7BPTms+zHo+TMVIMfpJwPXr+iUjyUgykowkI8lIMpKMJCPJSDKSjJwJuJnLzVy5+ZA/4A9a8Qdkt6+pyK3lnWKn2LVS7MgesofsIXvIHrKH7CF7yB6yi+wj+8i+NAHzv/nf/O9mqRZuliK7yW6yO0NAs9fsNXvNvoVmb7PHZo/NHps9Nnts9tjssdljs8dmj80emz02e2z2pAi05L/IbrKb7Ca7kwRaKnZkH9lH9pF9ZB/ZR/aRfWQf2Uf2kX1kH9nXg+wz/5p/e55/vx9Qud/7zm7F7j4BstOdzbkwaFgwLBgWDAv6p/55j4D8ID/ID2kC8pP8JD/JT/KT/CQ/3RKQH+XHrfIj2e3O7txa8p3dvxSbrYqNnWU7yz3vLFv/1r/1f02A7CP7yD6yj+wj+8g+su8nAbKTf+AfbJanCDwzP5DdZDfZnSGg2cZptsMwXH1S0zRd/ffX11zOlh//v08+l/9SyfUb5/ol+8l+sp/svyTwzLCifqgf6of6oX4sBNRPm8U2i20W2yx+vFlMdpPdZDfZnSQQSRbOsvunwM4uXv+zOwLzhgfZvXzska5fsoqsIqvIKrKKrDoTIOvIOrKOrCPrHss6+Vl+lp//PT9/P6ByHA/JaiuMCCPCiDASIYyM40h2d6evnzvhWXYfDks/07/0L/1L/4rQv+4dg80o//IkV5/0L/1L/9K/9C8yWH64JSA/yU9r8xPZ7TuZszZJ2Ba2o4Rtsvs58dvrq+d14s6xEwH1W/2OUr8Na4a1nwQMq4bVtcOq+qF+qB/XBNRP9VP9TBMw/5h/zquD7Ca7ye4MAcUyTrG8vGO3V5HrvB8TILsXRupXnPpF1pA1ZA1Zc0mArCKryCqyKkVAfpPf3KyQJqB/6p9r+yfZTXaT3WR3kkCksEV2Pxa9XrHbkd1k95lApPpFdpPdZDfZTXYvBMgKsmKtrNA/9U/9U//UP/XPM4Fn8sP3AypzEsmwaGfRzqKdxRSBZ4rNq2GV7Kay1xAgu8lusvtEQH6T3+Q3+S1Cfns1//l9spPsJDvJTrLzX2Sn/tF3/yC73dmd9UeGZcNylGGZ7F6jevt+jQdUXn/+6rf6HaV+Gzb6HjZ8/j5/spKsJCvJSrLyRKDkzWL6r/7bc/8lu8lusjtDgCyKI4s8oLJvkb3m7MlusvuSgPodp34btgxbPQ9b1r/1b/2T/WQ/2U/2k/02O8pu9pDdZDfZTXYnCUSSRWT3Gt3b92vIbrKb7F4IRKrfZB/ZR/aRfWQf2Uf2kX1kX1nZJ3/JXz3nr+8HVA7DPmlI/DMLDxDJ6TPDtDvncutjy/oxDMNuOhYsPwikCMyye79f+tmW6+/ee6p/6l+p+mf93RJw/bn+XH9pAvqf+c38liagf+gf+of+kSKgf7bTP8nuv4q9Yq/Y11DsyW6Sew2BeZ24c8idQ+4ccueQYaWdYcVmj82enwTISvOr+dX8WsP8qn/pX/rXNYGS/ZvsJruz/siwaFiMcmfI5R27a6Sn1/RJgOxePnf1W/2OUr8Ne4Y9w97nhj3Xn+vP9ef6uyRQUjapP+qP+qP+fKr+kN1kN9mdIUAWxZFFZHef8vrZsya7ye4zAfU7Tv027Bp2DbuG3U8Nu+qP+qP+qD/qz0LAZod/GZObr1uan74fUJmTSC2drLAj7Ag79YYdsvtZ7dvn68luspvsPhGQ38j+XBcw7Bp2exl2zX/mP/NfvfOf69f16/p1/f7rZhXZ7c7urBEzLBuWowzLZHef8vqZs/aAymta6rf6HaV+G1YNq4ZVw+q/Dqvqh/qhfqgf6sdCwGa1zWqb1WkCl/Mv2U12k90ZAmRRHFnkAZXPaN8+X0t2k92XBNTvOPWbrCKryCqyiqwiq84EyDqyjqxbJ+vkJ/lJfvr3/ER2k91kN9mdJBBJFpHdfQrsZ86a7Ca7ye6FQKT6bVgzrBnW/n1Yc/24flw/rh+bRTaLbBadCNgss1m2drPs+wGV43hIvt5ispjWLiZhXBh/Zxgfx3E3HQuWHwRSBGbZfTgs/Uz/0r/0rzQBMtyd77nrQ/1UP9VP9TNFQP/QP/SPNAH9U//UP2P0T7L7l2alWWlWKQKRmjXZTXKvITCvE3c+uPPBnR/ufInUv+7VLrJI/pa/5e8a8rf6dUtA/Va/1W/1W/2+TyBS/ia7ye6sP4q0WIWtvsPW5R27a6Sn1/RJgOxePnf1250l7iyJcWeJ/NJ3fvH5+/x/EiBLyVKylCwlS+PLUv277v5NdpPdZHeGAFkURxaR3X3K62fPmuwmu88E1O849duwUPew4PPz+ZG11wTIarKarCaryWqy+h4B80ec+eP7AZU5ieTDivNhGTYMGz0PG2T3s9q3z9eT3WQ32X0iIL/Jb7kuQNaRdWQdWUfWkXVk3S0B+Ul+kp/SBGrKj2S3O7uzRkyxV+yjFHuyu095/cxZe0DlNS31W/2OUr9t1tus73mz3vq3/q3/awI1yRLXr+vX9ev6vSSgftVzswDZTXaT3RkCZFEcWeQBlc9o3z5fS3aT3ZcE1O849ZssIAvIArKALFgIkCX1yBL9S//Sv/Qv/avO/kV2k91kN9mdJBBJFpHdfQrsZ86a7Ca7ye6FQKT6TRaQBWQBWUAW1CkL1G/1W/1Wv9Vv9ftMoKbN2u8HVA7DPukTajoZzVgz1ozbbcbDMOymY8Hyg0CKwCy79/uln+lf7pzKXS1ksDu/c+tD/VA/1I80AfVT/VQ/0wT0D/1D/9A/UgT0z3L9k+z+Ww72vQVvseMvLK4Li2Q3yb2GwLxOatx5tllrs9ZmbbubtfLfLQH5V/6Vf9flX/VD/fhJQP1UP9VP9TNFwGbbstlGdpPdWX/kYrEzHWVn+vKO3TXS02v6JEB2L5+7+q1+R6nfZA1ZQ9ZcEyCryCqyiqwiq+4TkF/lV/k1TUB+WJ8fyG6ym+zOENBs4zRbsrtPef3sWZPdZPeZgPodp36T3WQ32U12XxIwrK8f1tVP9VP9VD/Vz4WA/qF/rN0s/n5AZU4iGRYNi3bW7KylCJRsNmT3s9q3z9eT3WQ32X0iIL/Jb/Kb/BYhv5G1ZC1ZS9aStWTtmUBJf6D/9N1/yG53dmeNmGHZsBxlWCa7+5TXz5y1B1Re01K/1e8o9duw0few4fP3+ZOdZCfZSXaSnScCZK87k3P53Py23fxGdpPdZHeGgGKzXbF5ddj1gMpntG+fryW7ye5LAup3nPr9av33+2QpWUqWkqVkKVlKlpLFZLnNApsFazcLyG6ym+wmu5MEIskisrtPgf3MWZPdZDfZvRCIVL/JarKarCaryWqymqwmq8lqspqsJqvXyupX54fvB1SO4yH5fhajxVhqMb66mP1+28P0OI676Viw/CCQIjDL7sNh6Wf6l/6lf6UJkOHufM9dH+qn+ql+qp8pAvqH/qF/pAnon/qn/hmjf5LdvzQrzUqzShGI1KzJbpJ7DYF5nbhzyJ1D7hxy51Ck/nWvdpFF8rf8LX/XkL/Vr1sC6rf6rX6r3+r3fQKR8jfZTXZn/VGkxSps9R22Lu/YXSM9vaZPAmT38rmr3+4scWdJjDtL5Je+84vP3+f/kwBZSpaSpWQpWRpflurfdfdvspvsJrszBMiiOLKI7O5TXj971mQ32X0moH7Hqd+GhbqHBZ+fz4+svSZAVpPVZDVZTVaT1fcImD/izB/fD6jMSSQfVpwPy7Bh2Oh52CC7n9W+fb6e7Ca7ye4TAflNfst1AbKOrCPryDqyjqwj624JyE/yk/yUJlBTfiS73dmdNWKKvWIfpdiT3X3K62fO2gMqr2mp3+p3lPpts95mfc+b9da/9W/9XxOoSZa4fl2/rl/X7yUB9auemwXIbrKb7M4QIIviyCIPqHxG+/b5WrKb7L4koH7Hqd9kAVlAFpAFZMFCgCypR5boX/qX/qV/6V919i+ym+wmu8nuJIFIsojs7lNgP3PWZDfZTXYvBCLVb7KALCALyAKyoE5ZoH6r3+q3+q1+q99nAjVt1n4/oHIY9kmfUNPJaMaasWbcbjMehmE3HQuWHwRSBGbZvd8v/Uz/cudU7mohg935nVsf6of6oX6kCaif6qf6mSagf+gf+of+kSKgf5brn2T333Kw7y14ix1/YXFdWCS7Se41BOZ1UuPOs81am7U2a9vdrJX/bgnIv/Kv/Lsu/6of6sdPAuqn+ql+qp8pAjbbls02spvszvojF4ud6Sg705d37K6Rnl7TJwGye/nc1W/1O0r9JmvIGrLmmgBZRVaRVWQVWXWfgPwqv8qvaQLyw/r8QHaT3WR3hoBmG6fZkt19yutnz5rsJrvPBNTvOPWb7Ca7yW6y+5KAYX39sK5+qp/qp/qpfi4E9A/9Y+1m8fcDKnMSybBoWLSzZmctRaBksyG7n9W+fb6e7Ca7ye4TAflNfpPf5LcI+Y2sJWvJWrKWrCVrzwRK+gP9p+/+Q3a7sztrxAzLhuUowzLZ3ae8fuasPaDympb6rX5Hqd+Gjb6HDZ+/z5/sJDvJTrKT7DwRIHvdmZzL5+a37eY3spvsJrszBBSb7YrNq8OuB1Q+o337fC3ZTXZfElC/49TvV+u/3ydLyVKylCwlS8lSspQsJsttFtgsWLtZQHaT3WQ32Z0kEEkWkd19CuxnzprsJrvJ7oVApPpNVpPVZDVZTVaT1WQ1WU1Wk9VkNVm9Vla/Oj98P6ByHA/J97MYLcZSi/HVxez32x6mx3HcTceC5QeBFIFZdh8OSz/Tv/Qv/StNgAx353vu+lA/1U/1U/1MEdA/9A/9I01A/9Q/9c8Y/ZPs/qVZaVaaVYpApGZNdpPcawjM68SdQ+4ccueQO4ci9a97tYsskr/lb/m7hvytft0SUL/Vb/Vb/Va/7xOIlL/JbrI7648iLVZhq++wdXnH7hrp6TV9EiC7l89d/XZniTtLYtxZIr/0nV98/j7/nwTIUrKULCVLydL4slT/rrt/k91kN9mdIUAWxZFFZHef8vrZsya7ye4zAfU7Tv02LNQ9LPj8fH5k7TUBspqsJqvJarKarL5HwPwRZ/74fkBlTiL5sOJ8WIYNw0bPwwbZ/az27fP1ZDfZTXafCMhv8luuC5B1ZB1ZR9aRdWQdWXdLQH6Sn+SnNIGa8iPZ7c7urBFT7BX7KMWe7O5TXj9z1h5QeU1L/Va/o9Rvm/U263verLf+rX/r/5pATbLE9ev6df26fi8JqF/13CxAdpPdZHeGAFkURxZ5QOUz2rfP15LdZPclAfU7Tv0mC8gCsoAsIAsWAmRJPbJE/9K/9C/9S/+qs3+R3WQ32U12JwlEkkVkd58C+5mzJrvJbrJ7IRCpfpMFZAFZQBaQBXXKAvVb/Va/1W/1W/0+E6hps/b7AZXDsE/6hJpORjPWjDXjdpvxMAy76Viw/CCQIjDL7v1+6Wf6lzunclcLGezO79z6UD/UD/UjTUD9VD/VzzQB/UP/0D/0jxQB/bNc/yS7/5aDfW/BW+z4C4vrwiLZTXKvITCvkxp3nm3W2qy1WdvuZq38d0tA/pV/5d91+Vf9UD9+ElA/1U/1U/1MEbDZtmy2kd1kd9YfuVjsTEfZmb68Y3eN9PSaPgmQ3cvnrn6r31HqN1lD1pA11wTIKrKKrCKryKr7BORX+VV+TROQH9bnB7Kb7Ca7MwQ02zjNluzuU14/e9ZkN9l9JqB+x6nfZDfZTXaT3ZcEDOvrh3X1U/1UP9VP9XMhoH/oH2s3i78fUJmTSIZFw6KdNTtrKQIlmw3Z/az27fP1ZDfZTXafCMhv8pv8Jr9FyG9kLVlL1pK1ZC1ZeyZQ0h/oP333H7Lbnd1ZI2ZYNixHGZbJ7j7l9TNn7QGV17TUb/U7Sv02bPQ9bPj8ff5kJ9lJdpKdZOeJANnrzuRcPje/bTe/kd1kN9mdIaDYbFdsXh12PaDyGe3b52vJbrL7koD6Had+v1r//T5ZSpaSpWQpWUqWkqVkMVlus8BmwdrNArKb7Ca7ye4kgUiyiOzuU2A/c9ZkN9lNdi8EItVvspqsJqvJarKarCaryWqymqwmq8nqtbL61fnh+wGV43hIvp/FaDGWWoyvLma/3/YwPY7jbjoWLD8IpAjMsvtwWPqZ/qV/6V9pAmS4O99z14f6qX6qn+pnioD+oX/oH2kC+qf+qX/G6J9k9y/NSrPSrFIEIjVrspvkXkNgXifuHHLnkDuH3DkUqX/dq11kkfwtf8vfNeRv9euWgPqtfqvf6rf6fZ9ApPxNdpPdWX8UabEKW32Hrcs7dtdIT6/pkwDZvXzu6rc7S9xZEuPOEvml7/zi8/f5/yRAlpKlZClZSpbGl6X6d939m+wmu8nuDAGyKI4sIrv7lNfPnjXZTXafCajfceq3YaHuYcHn5/Mja68JkNVkNVlNVpPVZPU9AuaPOPPH9wMqcxLJhxXnwzJsGDZ6HjbI7me1b5+vJ7vJbrL7REB+k99yXYCsI+vIOrKOrCPryLpbAvKT/CQ/pQnUlB/Jbnd2Z42YYq/YRyn2ZHef8vqZs/aAymta6rf6HaV+26y3Wd/zZr31b/1b/9cEapIlrl/Xr+vX9XtJQP2q52YBspvsJrszBMiiOLLIAyqf0b59vpbsJrsvCajfceo3WUAWkAVkAVmwECBL6pEl+pf+pX/pX/pXnf2L7Ca7yW6yO0kgkiwiu/sU2M+cNdlNdpPdC4FI9ZssIAvIArKALKhTFqjf6rf6rX6r3+r3mUBNm7XfD6gchn3SJ9R0MpqxZqwZt9uMh2HYTceC5QeBFIFZdu/3Sz/Tv9w5lbtayGB3fufWh/qhfqgfaQLqp/qpfqYJ6B/6h/6hf6QI6J/l+ifZ/bcc7HsL3mLHX1hcFxbJbpJ7DYF5ndS482yz1matzdp2N2vlv1sC8q/8K/+uy7/qh/rxk4D6qX6qn+pnioDNtmWzjewmu7P+yMViZzrKzvTlHbtrpKfX9EmA7F4+d/Vb/Y5Sv8kasoasuSZAVpFVZBVZRVbdJyC/yq/ya5qA/LA+P5DdZDfZnSGg2cZptmR3n/L62bMmu8nuMwH1O079JrvJbrKb7L4kYFhfP6yrn+qn+ql+qp8LAf1D/1i7Wfz9gMqcRDIsGhbtrNlZSxEo2WzI7me1b5+vJ7vJbrL7REB+k9/kN/ktQn4ja8laspasJWvJ2jOBkv5A/+m7/5Dd7uzOGjHDsmE5yrBMdvcpr585aw+ovKalfqvfUeq3YaPvYcPn7/MnO8lOspPsJDtPBMhedybn8rn5bbv5jewmu8nuDAHFZrti8+qw6wGVz2jfPl9LdpPdlwTU7zj1+9X67/fJUrKULCVLyVKylCwli8lymwU2C9ZuFpDdZDfZTXYnCUSSRWR3nwL7mbMmu8lusnshEKl+k9VkNVlNVpPVZDVZTVaT1WQ1WU1Wr5XVr84P3w+oHMdD8v0sRoux1GJ8dTH7/baH6XEcd9OxYPlBIEVglt2Hw9LP9C/9S/9KEyDD3fmeuz7UT/VT/VQ/UwT0D/1D/0gT0D/1T/0zRv8ku39pVpqVZpUiEKlZk90k9xoC8zpx55A7h9w55M6hSP3rXu0ii+Rv+Vv+riF/q1+3BNRv9Vv9Vr/V7/sEIuVvspvszvqjSItV2Oo7bF3esbtGenpNnwTI7uVzV7/dWeLOkhh3lsgvfecXn7/P/ycBspQsJUvJUrI0vizVv+vu32Q32U12ZwiQRXFkEdndp7x+9qzJbrL7TED9jlO/DQt1Dws+P58fWXtNgKwmq8lqspqsJqvvETB/xJk/vh9QmZNIPqw4H5Zhw7DR87BBdj+rfft8PdlNdpPdJwLym/yW6wJkHVlH1pF1ZB1ZR9bdEpCf5Cf5KU2gpvxIdruzO2vEFHvFPkqxJ7v7lNfPnLUHVF7TUr/V7yj122a9zfqeN+utf+vf+r8mUJMscf26fl2/rt9LAupXPTcLkN1kN9mdIUAWxZFFHlD5jPbt87VkN9l9SUD9jlO/yQKygCwgC8iChQBZUo8s0b/0L/1L/9K/6uxfZDfZTXaT3UkCkWQR2d2nwH7mrMluspvsXghEqt9kAVlAFpAFZEGdskD9Vr/Vb/Vb/Va/zwRq2qz9fkDlMOyTPqGmk9GMNWPNuN1mPAzDbjoWLD8IpAjMsnu/X/qZ/uXOqdzVQga78zu3PtQP9UP9SBNQP9VP9TNNQP/QP/QP/SNFQP8s1z/J7r/lYN9b8BY7/sLiurBIdpPcawjM66TGnWebtTZrbda2u1kr/90SkH/lX/l3Xf5VP9SPnwTUT/VT/VQ/UwRsti2bbWQ32Z31Ry4WO9NRdqYv79hdIz29pk8CZPfyuavf6neU+k3WkDVkzTUBsoqsIqvIKrLqPgH5VX6VX9ME5If1+YHsJrvJ7gwBzTZOsyW7+5TXz5412U12nwmo33HqN9lNdpPdZPclAcP6+mFd/VQ/1U/1U/1cCOgf+sfazeLvB1TmJJJh0bBoZ83OWopAyWZDdj+rfft8PdlNdpPdJwLym/wmv8lvEfIbWUvWkrVkLVlL1tnN12EAACAASURBVJ4JlPQH+k/f/Yfsdmd31ogZlg3LUYZlsrtPef3MWXtA5TUt9Vv9jlK/DRt9Dxs+f58/2Ul2kp1kJ9l5IkD2ujM5l8/Nb9vNb2Q32U12ZwgoNtsVm1eHXQ+ofEb79vlaspvsviSgfsep36/Wf79PlpKlZClZSpaSpWQpWUyW2yywWbB2s4DsJrvJbrI7SSCSLCK7+xTYz5w12U12k90LgUj1m6wmq8lqspqsJqvJarKarCaryWqyeq2sfnV++H5A5Tgeku9nMVqMpRbjq4vZ77c9TI/juJuOBcsPAikCs+w+HJZ+pn/pX/pXmgAZ7s733PWhfqqf6qf6mSKgf+gf+keagP6pf+qfMfon2f1Ls9KsNKsUgUjNmuwmudcQmNeJO4fcOeTOIXcORepf92oXWSR/y9/ydw35W/26JaB+q9/qt/qtft8nECl/k91kd9YfRVqswlbfYevyjt010tNr+iRAdi+fu/rtzhJ3lsS4s0R+6Tu/+Px9/j8JkKVkKVlKlpKl8WWp/l13/ya7yW6yO0OALIoji8juPuX1s2dNdpPdZwLqd5z6bVioe1jw+fn8yNprAmQ1WU1Wk9VkNVl9j4D5I8788f2AypxE8mHF+bAMG4aNnocNsvtZ7dvn68luspvsPhGQ3+S3XBcg68g6so6sI+vIOrLuloD8JD/JT2kCNeVHstud3Vkjptgr9lGKPdndp7x+5qw9oPKalvqtfkep3zbrbdb3vFlv/Vv/1v81gZpkievX9ev6df1eElC/6rlZgOwmu8nuDAGyKI4s8oDKZ7Rvn68lu8nuSwLqd5z6TRaQBWQBWUAWLATIknpkif6lf+lf+pf+VWf/IrvJbrKb7E4SiCSLyO4+BfYzZ012k91k90IgUv0mC8gCsoAsIAvqlAXqt/qtfqvf6rf6fSZQ02bt9wMqh2Gf9Ak1nYxmrBlrxu0242EYdtOxYPlBIEVglt37/dLP9C93TuWuFjLYnd+59aF+qB/qR5qA+ql+qp9pAvqH/qF/6B8pAvpnuf5Jdv8tB/vegrfY8RcW14VFspvkXkNgXic17jzbrLVZa7O23c1a+e+WgPwr/8q/6/Kv+qF+/CSgfqqf6qf6mSJgs23ZbCO7ye6sP3Kx2JmOsjN9ecfuGunpNX0SILuXz139Vr+j1G+yhqwha64JkFVkFVlFVpFV9wnIr/Kr/JomID+szw9kN9lNdmcIaLZxmi3Z3ae8fvasyW6y+0xA/Y5Tv8luspvsJrsvCRjW1w/r6qf6qX6qn+rnQkD/0D/WbhZ/P6AyJ5EMi4ZFO2t21lIESjYbsvtZ7dvn68luspvsPhGQ3+Q3+U1+i5DfyFqylqwla8lasvZMoKQ/0H/67j9ktzu7s0bMsGxYjjIsk919yutnztoDKq9pqd/qd5T6bdjoe9jw+fv8yU6yk+wkO8nOEwGy153JuXxufttufiO7yW6yO0NAsdmu2Lw67HpA5TPat8/Xkt1k9yUB9TtO/X61/vt9spQsJUvJUrKULCVLyWKy3GaBzYK1mwVkN9lNdpPdSQKRZBHZ3afAfuasyW6ym+xeCESq32Q1WU1Wk9VkNVlNVpPVZDVZTVaT1Wtl9avzw/cDKsfxkHw/i9FiLLUYX13Mfr/tYXocx910LFh+EEgRmGX34bD0M/1L/9K/0gTIcHe+564P9VP9VD/VzxQB/UP/0D/SBPRP/VP/jNE/ye5fmpVmpVmlCERq1mQ3yb2GwLxO3DnkziF3DrlzKFL/ule7yCL5W/6Wv7fK3/vfv6/+1KObQ+abA3I/l7+ff+WaZOY1XRC4WFNbrr+Z3e/9/gqh/ql/6p/655r+SXaT3dn+a1i0MxllZ/Lyjt0uQqOT/CcCZPeCTf1Wv6PUb7L3loBh3bBuWDesrxnW19RPsvufIqNf2pIA2f3/NOVv+Vv+ThMomX/JbrKb7M4Q0KziNCuye8tE2u7fIrvJ7jMB9TtO/V4ja36+xufn8zMsxhgWXb/xN6vI7nZzbTVnRnaT3f8jIL/Jb1Hy2/cDKnMSyWK1WKMsVmE7fth+p6wgu6uJux89ULKb7Ca7TwTkN/lNfiOLUwRK3lklv78/v5PdH42e3nwmQHaT3WS3/B1s/iC73dmdbdCGZcNylGGZ7JalHxHwgMprQuq3+h2lfpNd75dd79xs9vn5/H4SIMtjfQ0P2f0oIfr/bydAdpPdZDfZTXZfl1phKVZYMiyRRZcEIskyD6h8e0yt/g3IbvUrav0iC8lCslD+vyRg/jH/5ELXs/mb7K4+wtZ/AmQ32U12k91kt7Ar7C4EhH1hf23YJ7vrz8HvPgOym+wmuxcCz8oSm92uH9eP6+dMQP2o618Gkd3vTpj+/kMCZDfZTXaT3dFk9zTtpmHYJ+sXGUlGrpWR915n/Vg/W62fYRh207Fg+UEgRWCW3fv90s/UH/Vnq/pz7++QQXXJIDKfzCfzyfxWZf6fcby6wOc8lPt5lKevfl/2FrxXELic0DZdf8f3Hv/8uToC+Uv+yi1J85/577w+vshuxUKxSBNQLOMUS7J7RdL0kt28Ts4/rt841y9ZfEvAsCZ/yV/yV4qA/qV/PbNZS3YLwJ8mQHYvn4D6rX4/U79/vtb62W79kN1/DVuGLcNWDcPW5R27nw503j8uAbJb2LbZcSIgLG8Xlm3W2Kz5ScBmlfkp0vxEdsfNpb0cGdktf8vf8ne0+YPsJruzPdiwbFiOsjNJdvcSl187T7Jb2Ba2he1oYZssJ8vJ8msCNgu23Swgu1/Ljn77dQJkt/wtf8vf0fL3/IVeU04ikZ1kZxTZaVjse1gku18Poj38BbJb2Ba2he1oYVt+6Tu/+Px9/u/e7CC7e0i4sc+R7Ja/5W/5O1r+Jrvd2Z3tnDY7bHZE2ewgu2OH3AhH5wGV15+C+q1+R6nfZB/Z927Z9/Pvq3/qX0/1j+yOkEL7Pgaym+wmu8lusvtHH/DP2Lb9Z2zCPtlzSaClYc8DKvsO0WvOnuxW/1qtf2QxWUwWXxMwP5gfcrmgpfy7pv6T3WtSote8kwDZTXaT3WQ32U12XxEQ1oV1YT1N4HJYIbvfGVHb+NtkN9lNdhu2DFuGrWjD1hpZ+fM1vcla5/9a/ya728ixNZ8F2S1/yV/yV7T89f2AynE8JGsrGUvGkrHrZKxh5pbAlvVjHMfddCxYfhBIEZhl9+Gw9LMt19+99yQj/DP53NVo/clP8pP8lCKgf+gfW/aP/e/fV3/uUV6e81Lu5/L386+USRH4H4GLNbXl+pv/+u/9/gqz+ql+blk/f/4t+b2d/E52/1IsFIs0AcUuTrEju8XpNQTmdXL+cf3GuX5tFtwSMKzJX/KX/JUioH/pX89slpHdaxKi17yVANlt/vgfAf1L/3qmf71zs4HsJruzfU+xUqyiFKvLO3bfGtb88aoJkN3Lx6d+q99R6rfNDpsdPwnY7LHZY7Nnu80esrvq6NrGwZPdZDfZ/U3A/BVn/iK7yW6yO0NAsYpTrMjuNrLwu8+C7Ca7zwTU7zj1m+wmu8nuawJkP9m/pewnu9+dLv39hwTIbrKb7Ca7g8n++Wu4ppxEMiwaFt0ZliZgWCk3rJDdD2OmFxwJkN1kN9l9IiC/yW/ym/yWIiC/lsuvJTb7yG4R+OMEyG6ym+yWv4PNH2S3O7uzvdGwbFiOMiyT3R+PseEPwAMqrz8i9Vv9jlK/S8ien+9h/Vv/1j/Z34vsJ7vDR9T2D5DsJrvJbrKb7L6u9e4saOvOAsMm2XRJYEvZ4AGV7efkV8+Q7FZ/3lV/yNpbAvKb/Jar2Vv2f9ef6+8nAfXnuv6Q3a8mSL//MgGym+wmu8luspvsviQgrBkWDYtpApfDMtn9cgxt/g+Q3WQ32b0QIBvd2Zwr+vKn/Cl/rsufNWy2kN3NR9z4J0h2k91kN9kdTXZP024ahn2ygArDwrAw3E4Y/nkmNcmQYRh207Fg+UEgRWCW3fv90s/0L/1L/9K/UgRq6n/3zsHx28ywmZEm8K/9/884fv/ROU/kfh7l0bu/L8MKsAiEI3Bvstzq+h///Ll7vvq3/q1/b9+/z3/xsv9/kd0uNhdbmYvNsHpL4JlmT3aHy4chD2heJ/eanevvtesPP/x+Enimfls/1o/1c03A9RNz/iK7Q0Y7B4XA2wiQ3bdo/3Wz0Px1IoBfnJutyO6/McOWYqFYKJbXzeLyjt23JR5/uHoCZPfyEQpbccIW2Uv2kr1k7yUBsjvm/EV2Vx8DnQACTxEgu8nunwTMT+3MT2Q32Z1tCC72di722mUL2f1Uduv2xWQ32W2z2GaxzWJ3Fsmv8msuCKU2G8jubuOjE++UANlNdpPd1wRayk/zF5JNOYnU0snWLvscvzvDer4zjOzuNIU+edpkN9lNdpPdZDfZbX4hu8nuJwOUlyPQIQGym+wmu8nuZOnzz/Bi/jM8w75hv7Vhn+zuMIE+ecoeUNluWLHZa7O3581e69/6t/6vCbxr/nRn95PBy8sRqJwA2U12k93tzo/u7PY1JtkW5c4Yd8b8y50x79hs8YDKytNkgcMnu9sNK2Qf2Uf2lZF97+jfrl/Xby3XL9ldIKx5CwQCESC7yW6yu935kewmu8nuDAGyP47sJ7sDJcOgh0J2txtWyDKyrBZZRhafCMhPcfKT+rm+fpLdQQOew0LgTQTIbrKb7G53fvx+QOU4HpLl413/TMwwYBgwDBkGnxmGx3HcTceC5QeBFIFZdh8OSz/Tv3zNVu5qeab+3Ps7fp/My60v9Uf9UX/SBKLWz/3v398H/Shvznkj93Pv9/O/IdshgMBHCNy5lre6/n/v93dPKWr9Ox+s/CK/tJJfyO5fhjXDWpqAYh+n2JPdH4mA1b3pvE6EtRMB9StO/SLLbwkY9uRP+VP+TBH4VP8iu6uLfQ4YgdcIkN03/D5Vf81v5ret51eym+zONgjFjiyJsrN3ecfua6nGb7dMgOxePl31W/2OUr/JfrL/JwGbHTY7Im52kN0tJ0TnhsAdAmQ32f2DgPmpnfmJ7Ca7ye4MAcUuTrEju0XUNQTIbrLbnSHuDNn6zhCynqwn668JtLpZQXavSVpeg0BDBMhuspvsviLQkv/6fkBlTiK1dLKGFcOKYaXeYYXsbihYvvFUyG6ym+wmu8luX2Nkfolzs0JN8xfZ/caA5k8jEJEA2U12k91kd6o2tbqzb1g2LBuWYw3LZHfEhBjrmDyg8vrzIHvIntwVKr/5Gonc+lA/1I8e6wfZHSvXORoE3k6A7Ca7yW6ym+y+T8CwaFg0LKYJbDkse0Dl2+Ne9W9AdpPdlwS2rD/3Lg79X//X/8v0f9ffLQH15z31h+yuPgo6AQSeI0B2k91kN9lNdpPdhg3Dxk8CJYctsvu57Nbjq8luspvsXgiQ/e7MzfWBkv1bfpQfP5kfn1l/ZHeP6dE5d02A7Ca7ye52Zfc07aZh2CdrnDD8njsHzsANo4ZRw2iawGX9GYZhNx0Llh8EUgRm2b3fL/1M/9K/cleL/qv/6r/r+u+9V7l+XD8tXj9/xvH7tOY8kft5lEfv/r4MK8AiEI7Avclyq+t//PPn7vnqn/pni/3zfE6R5u8vstvF5mIz7KUIRCpWZHe4fBjygOZ1ErHZkkW3BIR9+UP+kD9qyB/qdz/1m+wOGe0cFAJvI0B236KNNP/rv/3033fM72T3X8OmYdOwWcOweXnH7tsSjz9cPQGye/kIhVV3tucuaJsN8p/8J//VkP9Kyg6yu/oY6AQQeIoA2U12/yRgfmpnfiK7ye5sQ3Cxt3OxlxwW3rEzR3Y/ld26fTHZTXa/o/7UXj8dvztjfhKw2WGzw2bHLQGyu9v46MQ7JUB2k91k9zWBlvzf/IVkU04itXSyhj3DnmHvmkBNwy7Z3WkKffK0yW6ym+w+EZDfbFbnymdN/V9+l99L5Xey+8nQ5eUIVE6A7Ca7yW6yO1nGhGV3huR6nGHbsL3VsE12V54mCxy+B1S2G1bILrKrlOyyWWKzxGZRv5tlZHeBsOYtEAhEgOwmu8nududHd3b7GpNsuyGryeqtZPWrssoDKgMlw6CHQna3G1ZerR9+nywny68JuFnFzSpuVrklQHYHDXgOC4E3ESC7yW6yu935kewmu8nuDAGyP47sJ7vflPIa+rNkd7thhawmq8lqsvqSAFnfr6zf//69m6Z7impZIXMeyP2kfj//Ww0FJqeCAALvJ5CoQ1vUr9/7ffL4+Ys4/sL88tn55fsBleN4SF4swmS/YXJeFD5/n38uCZRspuM4Phxu3p9avENkAvNwezgs/Uz9Ur+i1K97x1Gyfnr/WwL4GwZz9UH/iNs/5ruv/1Vmnz/z5O8/kOiRM5BjQwCBWARSW3Jb1K/xzx/+LkFA/47bv+ePrGT+Jrt/CfvCfpqAYhmnWJLdsQJc1KOZ18n5x/Ub5/olW8nWnwRKhl3rz/qz/q4J1Hz9kd1RE5jjQgCBSwJk9/31UHP/KS1r5dfX8ivZTXZnuxJZRBblFkjJZnV5x64ohUCKANm9kFG/1e8o9VtYfy2s44cfWb8QILtlQAQQqIEA2U12y2+fzW9kN9lNdmcIkEVxZBHZXUOs+/wxkt1k95mA+h2nfgv7nw37+OPfkiwnuz+ftRwBAgg8JkB2k93y12fz1/cDKnMSybBoWMyV8pJ39ioWny0Wn+ZPdj8OVV6x25HdZDfZfSIgv8lv8luagPxa79c4kt3SHgII1ECA7Ca7P+1Pen9/stud3dleYVg2LEcZlsnuGmLdZ4/RAyqv+avf6neU+t172Hb+fW/W+/y3/fzJ7s9mLe+OAALrCJDdZLf+v23/n//aMzcrkN1kN9mdIUAWxZFFHlC5Llj1/Cqym+y+JKB+x6nfwv5nwz7++P8k8MywGG39kN09Jz3njkA9BMhusjta/3xWFtd+/GQ32U12k91JApFkEdldT7j71JGS3WQ32b0QiFS/aw/Ljp8sbkkW1z7skt2fSlneFwEEniFAdpPd8uNn8+P3AyqHYZ+8bmve+a89zDn+5/6ZgmLy2WLybv7DMOymY8Hyg0CKwCy79/uln+lf9X4nq/6n/7l+Xb+5bmczp99/ubH//fthHpzzQO4nlSfzvyV/IYAAAk8QSNShR/Psmvr1+2LesRl7TUB+lB/PK4Ls/ttvWJwXgWHB559r2ZGaBdn9RLjq+KXzOjn/RFq/9z4S9Vf9raX+Wr+3BFy/rl/Xb5rAO/sv2d1xyHPqCNREgOy++2nJT/JTqfxEdpPd2ZbxzrBKtttseKbZXd6xW1POcaxlCZDdC2/1250NuavvmfpLdpPdPwlYP4bVUsPqz/chu8vmKu+GAAL/SIDsJrvvEJCfyuUnspvsJrszBMiiOLKI7P7HoNXZr5HdZPeZgPodp36T5WQ5WX5NwLD778Mu2d1ZsHO6CNRKgOwmu8nuGwIl88/3AypzEsmwaFh0Z1iaQMmLtXdZQHbXmvTKHjfZTXaT3ScC8pv8Jr/JbykCNedXsrtsrvJuCCDwjwTIbrKb7Ca7c+XDsGZYM6wZ1mYCZPc/Bq2Ofs0DKq8/bP1T/9Q/9c8WZed8TjXLWsf/2udHdncU7JwqAjUTILvJbrKb7Ca70wTICrKCrDgR8IDKmtNemWMnu8nuSwL6p/6pf5L9ZP99AjVvFpDdZTKVd0EAgRcJkN1kN9lNdpPdZHeKAFlBVpzXBtn9YuDq4NfJbrKb7F4I6J/6J9lP9rco+8nuDgKdU0SgBQJkN9lNdn9Wdk/TbhrHQ7Kc1LzzP5+U4//3B8DgZ/1Eun7GcdxNx4LlB4EUgVl2Hw5LP4u0fu8dMxlJRpKRZGSLMlJ+lB/f2X//HPPg3O9zP4/yYvL35UwhEwEENiKQmlq3qF/jnz/8XYLAO/vP/Jbmt3rmty+yu54Piyy5JaDY9LN+ye6Nklfjf2ZeJ+cfYcdmZ2656x/99A/5SX76ScD1X+/1T3Y3HuScHgKNECC773+Q+m+9/bc22U92/7LY3FnmzrIa7iy7vGO3kQzkNN5AgOxeoJL9ZD/ZnyZg2JJ/5d868y/Z/Ybw5E8igMDmBMhustvNFp+92YLsJruzhZ0sIUuiyBKye/MM1uQfJLvJ7jMB/Uv/itK/DDufHXbwb4s/2d1kfHNSCDRHgOwmu+WPz+aP+QvPppxEMiwaFg2L7gxLESh5ZxzZ3VwGfMsJkd1kN9l9IiC/yW/ym/wWIb9tPeyT3W+JT/4oAghsTIDsJru37n/z3yvpX2o/frLbnd3Zsm5YNixHGZbJ7o0TWIN/zgMqrz9U9Vv9jlK/aw/Ljv+WgGHL18Dk6ss7+w/Z3WCAc0oINEiA7Ca75cfP5keym+wmuzME3hnW7cw9tzPpAZUNpsCNT4nsJrsvCajfZD/ZnyZAVpPV75TV/xmGbIef+3XuZ5pSmmi3y//mxsHCn0MAAQQiEsjU0Fz9nE/lUf0d/vOf7BnLD/LDO/PDlvMb2U12k91kd5LAlsXm1Z1Nsjti0op1TGQ32U12LwQi1e9X67/fvyVg2DRsRh42ye5Y+cjRIIBAYwTI7ir8hfz62fz6/YDKYdgnF4swLUxHDtOG+X7u3BuOdwk92qluLMY4nScJzLJ7v1/6mf6lf+lfaQL6Zz/9894q8Pn7/HP18dX+efjvf7Md/FGey955mLnr+8nY4OUIIIBAlQTS//bl8Z3bj+rvfw+HLBP5QX54Z354NX9c/j7Z/ddirWWxGtZuCfTUbMjuKrNY8YOe18n5Z8tmqf70XX98/j7/nwR66r/Wv/X/7Ponu4vHH2+IAAIdESC70x+2+c/NTufVQXaT3dm2oFgoFrkFUnLYv7xjt6Ms41SfJEB2L8DUb/U7Sv0mS8nSZ2Wp+lV3/SK7nwwvXo4AAgg8QYDsJrtTBOSnJT+R3WQ32Z0hoFjEGbbI7icSUMcvJbvJ7jMB9TtO/Sa7yW6y+5pAyZsFPnH9kd0dBzGnjgACbydAdpPdZPd9AldfY3J8yZSTSIZFw6I7w9IEWh9WIl3/ZPfbc1MTb0B2k91k94lApPr9Cdnm/OVX+fVz+ZXsbiJSOQkEEAhKgOwmu8lustuw98uwY9j53LCzpWwgu4OmrUCH5QGV1x/GltcfWXlLwGanZ57kyp/rT/7sOX+S3YHCkUNBAIHmCJDdZDfZTXaT3WR3trmRFfXICg+obC6nbX5CZDfZfUmAbCQbe5aN1r/1/8n1T3ZvHnH8QQQQQOD/CZDdZDfZTXaT3WQ32Z0hUJPsJ7slvEcEyG6ym+xeCJCdZOcnZaf11/f6I7sfJRb/HwEEEPh3AmQ32U12r5Dd07SbxvGQXC01ybB7J+H467lz1+d3S8D6XdbvOI676Viw/CCQIjDL7sNh6WeuH/U/d7WQcX3LOJ+/z99mQJrAq/3zP8OQDStzv8795PJe/jdlJAQQQKADApka+mheflR/h//8JwtQfpKfaslPX2S3xVrLYr13nIptP+uX7O4guG1wivM6Of+8Oqz7fbKcLHfnjDtnHt8542YFNyv8JEB2bxBo/AkEEEAgfYdPkg3ZbX4xv5wIkN2+5iPbRMgexTJKsby8Y1fyQSBFgOxeyKjf6neU+m2z+paAzfp+Nut7XP9kt5yGAAIIvJGAO7uTcM0/5p/z4iC7yW6yO0NAsYxTLMnuNwamhv402U12nwmo33Hqd4+yz/qz/nrebCK7GwpWTgUBBOIRILvJ7gQB+XPJn/PXnk05iQSWsN5zWLf+46x/sjtezop4RGQ32U12nwjoX3H6F9l/S8Cd7W3f2U52R0xIjgkBBJohQHaT3WT3XQKX8w/Z7c7ubM03LBuWo2x2kN3NxLO3nYgHVF6jVb/V7yj1m+wle38SILvJ7lx98oDKt0UlfxgBBFogQHaT3WQ32W3YN+wb9tMEaho2PaCyhWT23nMgu8nuSwL6v/6v/7fR/22W1LdZ4s7u9+Ydfx0BBDonQHaT3WQ32W3YNewadtsYdsnuzkPditMnu8lusnshIP/IP/JPG/mnRtlPdq8ILV6CAAII/CsBspvsJrsfy+5p2k3DsE8ulpru/KwxDBpGDaOG0XXD6DAMu9w/a/3XrOD32iEwy+79fuln+lfb/0xe/9Q/9c91/fPeq1w/rp93Xj+H//43Gy4e5bm5nyd/jsOrHwQQQKBnArkqmK2fR2iP6u9/D4csWvlBfnhnfthyfv8iuy3WWharYe2WQE/NhuzuOdKtP/d5nZx/tmyW6k/f9cfn7/P/SaCn/mv9W//Prn+ye31u8UoEEEDgWQJkd5qY+c/NTufVQXb/JbvJbsUyRSBSs7i8Y/fZQOD1/RAgu5fPOtL1S5aRZc/KMuvXsJLrXDYbYs8vZHc/ucuZIoBAeQJkN39Tg7/59PxHdpPd2eps2DRsRhk2ye7yQarGdyS7ye4zAf1L/4rSvz4d9r2/zabSm01kd40JyjEjgEAtBMhuspvsvk/gcv6bvxBtykkkw6Jh0bCYJuDOonJ3FpHdtcSvzx4n2U12k90nAvKb/Ca/yW8pAu/Or2T3Z7OQd0cAgbYJkN1kN9lNdhv2fhn2DHttDHtkd9uhbYuz84DKa4pkp/6n/7XR/+6dxbtlpfqhfrxSPw7juEVb9zcQQAABBAoTGD2gMktc/ip3s+Or+ded3b7GJHsxG3YMO68MO1uuHw+oLJx0Knw7spvsviSwZf15NWz5/VsChoV6hgXr1/r9SeDR9Ut2VxiiHDICCCBwJEB28z9R/M+r+ZPsJrvJ7gwBsiROsSe75a9HBMhuspvsXgjoX3H616th3e+Tzc/K5k9f/2T3o8Ti/yOAAAIxCZDd8mMzsnuadtM4HpLn82jn/tNhyvu7GFu5GA2z+WF2PP6T2OlYsPwgkCIwy+7DxT+907/cOZq7WuQH+UF+SBNQP9XPV+rnfhiEFQQQQACBCgkM+332qOVn+bmW/PxFdlustSzWe8ep2PazWgbOfwAAIABJREFUfsnuCtPSBw55XifnH7KGrHlF1lg/1o/1kyYgf/WTv/4lf5PdHwhA3hIBBBDYgADZLf+2kn/Jbg9wzJZEw75iF6XYXd6xu0Ef9ycaJUB2Lx+s+q1+R6nf/yLLrF/r1/qtd7OB7G40ZDktBBBongDZLX+1kr/IbrKb7M4QMGzHKfZkd/PZapMTJLvJ7jMB9TtO/Sa7bwm4M9qd0bmmV3v9Irs3iTT+CAIIIFCcANktPzcju48nMuUkUu1hy/G7WFu5WHuXBWR38axT5RuS3WQ32X0iIP/IP/JPmoDNhvduNpDdVUYoB40AAgjsyG75sZX8+EV2vzfsGTYVi1aKxadlO9ktfT0i4AGV14T0H/1H/yE7UwTIXvk/Vx9e7R9k96PE4v8jgAACMQmQ3eaHVuYHstvXmGSr7Kth1+8rllsVSw+ojBmIIh0V2U12XxLQf/SfrfrPpzd7vf8tAbI+tqwnuyOlI8eCAAIIrCdAdsvPreRnspvsJrszBMiSOMWe7F4fUnp9JdlNdpPdCwH9K07/IqvJ6p8EWpf1ZHevScx5I4BA7QTIbvmxGdk9TbtpGPbJ82k9jBkGXcytXMytD9PDMOymY8Hyg0CKwCy79/uln+lfse/803/1X/03TUD9Ur9y10f0+nkYR2EFAQQQQKBCAuPh4GZIN0MmCUTPH5f5+YvsNmwaNg2bKQKRhm2yu8K09IFDntfJ+SfS+r2Hoqaw4PhvCfj85Cf5SX6qIT99on6T3R8IQN4SAQQQ2IAA2W2zvebNdrL74tMzrBpWDat1DKuXd+xu0Mf9iUYJkN3LB0v2C6uthNVPyDrXj+vH9ZMm8Gh+IrsbDVlOCwEEmidAdss/reQfd3b/JXvJ3jpkb+/DPtndfLba5ATJbrL7TICsFNZbCeu993/nf0vgkWz+dP0juzeJNP4IAgggUJwA2S0/t5Kfvx9QmZNInw5L3t/F1srFZlh7bVgju4tnnSrfkOwmu8nuEwH5SX6Sn9IEosvi2q9fsrvKCOWgEUAAgR3ZLT+2kh/Jbnd2Z0t67WHb8bdTrMlu6esRAQ+ovCak/rVT/2yWvrZZih9+PwmQ3e/9l61k96PE4v8jgAACMQmQ3eYHsvt/BITF94ZFskKxaaXYvCobPKAyZiCKdFRkN9l9SUD/1D/1T3c2pwiYX947v5DdkdKRY0EAAQTWEyC75edW8rM7u93Zna18ZIFiF6XYkd3rQ0qvryS7yW6yeyGgf+vfUfr3q5vdfv+WQHRZT3b3msScNwII1E6A7JYfW8mP3w+oHMdD8nyihynDnIuxlYvRMJcf5sZx3E3HguUHgRSBWXYfDks/07/ee+ee/qv/6r9pAuqP+pO7Plqvn/thEFYQQAABBCokMOz32aNuvX/Jb+3kN7L7l2HVsGpYTRGIVOzJ7grT0gcOeV4n559I6/ceCmFR/9V/9d8a+q/6dUtA/c7Xb7L7AwHIWyKAAAIbECC725G9vec3spvszpZEskixi3Jn0uUduxv0cX+iUQJk9/LBqt/qd5T63XvYdv5k8U8CrctysrvRkOW0EECgeQJkt/mhlfmB7Ca7ye4MAbIoTrEnu5vPVpucINlNdp8JqN9x6jfZS/b2Jnt7rz9k9yaRxh9BAAEEihMgu+XnZmT38USmnETqPaw5fxd7Kxd77bKB7C6edap8Q7Kb7Ca7TwTkF/lFfkkTaP3O6jXX//737ySgR89ImZ+Rkf3xjJUqM5SDRgABBB49IetR/c/1j9/H7wPXf32NY+4qW5Nf1v7+nFTI7gytLWHXLhsd/y0BxbpcsSa7ha9HBDyg8pqQ/kV2kp1kZ4qA/FIuv0TNz2T3o1Th/yOAAAL9ESC7zQ+tzA9kt68xyVZwskSxi1LsPKCyv7D17BmT3WT3JQH9S/+K0r+iys61d8Y4/jZvdiC7n00ZXo8AAgi0T4Dslp9byc9kN9lNdmcIkCVxij3Z3X64evUMyW6ym+xeCOhfcfoXWdymLK59s4DsfjV1+H0EEECgPQJkt/zYjOw+fqXaNAz75Pn4Z47+mWPtYd7xpwnUJEOGYdg9+g7J9uKGM3qGwCy798fvgjv/6F/6l/rfRv2/dxY19S/Hf0vA5/f5YfrPOCYLxCvfyTr/0Qff6P1Ma/daBBBAAIGSBB48k+HRPJ7rH+OfP54p8/fz/b8VmX3vPC7n/y+y22LrZbEbNuseNsnukimn3vea1wnZfSJA9pP9ZD/ZnyJANsv/ZHe9WceRI4AAAm8jQHZn0cpP9eQnstvOSvZiJkvIkiiy5PKO3bc1d3+4egJk9/IRqt/qd5T6bbO57s1mn1+bnx/ZXX3kcQIIIIDA9gTIbrI7Q6Am2U92k91kd4YAWRRHFpHd22eZFv8i2U12nwmo33HqN1napizN9RDXX/zrj+xuMQU5JwQQQOBFAmQ32d2K7D6ex5STSMJq/LBq2EgTsH7bWb9k94vBpZNfJ7vJbrL7RED/a6f/2SywWfCTwBZ3VpHdnQQjp4kAAgg8Q4DsJrvJ7hOBLcIWWUvWpggY1g3r57VBdj+TUvp8rQdUXn/u6qf6masE8ls93zlIdpPdZHefucZZI4AAAsUJkN1kN9lNdpP9NjvIgnKywAMqi0ed6t6Q7Ca7LwmQ/WQ/2Z8mIL+Uyy9RNyvc2V1dzHHACCCAwPsJkN1kN9lNdpPdZLdhsdywSHa/P9vU/g5kN9lNdi8EyH6yn+wn+1ME5vxKdteeehw/Aggg8AYCZDfZ3YrsnqbdNI6H5OmQeeVkXtQ7P3JXu2HaMF1qmB7HcTcdC5YfBFIEZtl9OCz9TP/Sv/SvNAH9W/8u1b/vvY/19/n1t//9O7kEHuWtud9mf+Q1YQ0BBBCoksCjaftR/c/1j9/7vWfK/Pp8/+8l/32R3RZbL4vdsHVLoKZhk+yuMi8VP+h5nZx/yG6ym+wmu1MEaup/8kvd+SXq50d2F48o3hABBBAIT4DsNj+1Mj+R3XZWsgWXLFLsohS7yzt2w6cEB/gxAmT3gl79Vr+j1O+oss9mf5qA+tF+/SC7PxZVvDECCCAQlgDZ3X7/7yX/kt1kN9mdIWDYi1Psye6wmSjUgZHdZPeZgPodp36T3bcE3FnuX1Z+etgku0PFFweDAAIIhCBAdsvPrdwsM3/h2pSTSIZFi72VxW7YrnvYJrtD5J/wB0F2k91k94mA/Ca/yW9pAjYbfu3I7vCRxgEigAACxQmQ3fJjK/mR7HZnd7aAGpYVuyjFjuwunnWqe0MPqLz+yNRv9TtK/bbZXPdms8+vzc+P7K4u5jhgBBBA4O0EyG7zQyvzA9lNdpPdGQJkUZxi7wGVb8821b8B2U12XxJQv+PUb7K0TVmaaxquv/jXH9ldfexxAggggMDmBMju+P1b/koTuMyfZDfZTXaT3UkCkYZVsnvzLNPcHyS7yW6yeyEQqX6T3WT3TwK+RuTz31lOdjcXg5wQAggg8DIBspvszi2imvLb9wMqh2GfPJ+aTsYwZZgyTF0TaOn6HYZhNx0Llh8EUgRm2b3fL/2spfV/75zJTGG0lTAqv8lv8lv5/PZnHJMlZO6nuZ9HeSz/23IMAggggEBYAq/W/8zvj3/+eKbMX/NLqfmF7LbYsnWWLPr8nTe5D6gn2UV2h41EoQ5sXifnH/VL/VI/0wR66h82i24J+PwNm2R3qPjiYBBAAIEYBMju7OcgP9WTn8huspvszhAgy+LIsss7dmMkAUcRkQDZvXwq6lec+kW2kq0/CRiW6hmWWr1+ye6IKcYxIYAAAh8mQHaT3RkCNeVXspvsJrvJ7iSBSLKM7P5w8Knk7clusvtMIFL9alWW5coC/jZbcuujpmGp1ev3kPkak0pavsNEAAEEEKiIwHg4+BoT/rGYf/x+QGVOIhlWDCuGlTQBw1q5O7PI7oqSzAcPlewmu8nuEwH5TX6T3+S3FIE5v5LdHwwr3hoBBBDokADZvSP7C8p+srsg7FbvDHFnV5oA2bCdbCC7O0xET56yB1ReA1N/tqs/+vctAZu95TZ7rT/r7yeBLa4/svvJkOHlCCCAAAIvESC7ye4t8sta/0h2k93ZgkWWkCVR7gzzgMqXskUXv0x2k92XBPQv/StK/yKryep3yOq1w15q/ZHdXUQjJ4kAAgiEIUB2k91k98XlaFg1rBpW0wRKFotPD+tkd5icEvZAyG6ym+xeCMhP8pP8JD+lCPgak7BRxoEhgAACzRIgu8nukv7q+wGV43hIXlAlD+bTMs37u/Mm4p03r96508rvj8cHKU3HguUHgRSBWXYfjg8+Of/oX75moZX6d+88yGwym8wms3My+1H92w+DQIEAAggggEAxAsN+75kyv+TXUvmV7LbYssWNLCKLHg1LpYoV2V0sh1T9RvM6IbtPBNRv9TtK/SbrbwnYrDDslcpPqeuP7K467jh4BBBAoDoCZLcHyJfMv2Q32U12ZwiQRXFk0eUdu9V1dgdcjADZvaBWv+LUL7KX7P1JoGTYt/6sv3vrj+wuFk28EQIIIIDAkQDZTXaXzL9kN9lNdpPdSQKRZBnZLSOtIUB2k91nApHqF9lINpLd1wRKDjuuv/vXH9m9JlV4DQIIIIDAVgTIbrK7ZP77Oi7cKSeRDIvuDMsVt5KL1bDStywgu7eKGW3/HbKb7Ca7TwTkN/lNfksTkF9/7cjutvOQs0MAAQSiESC7ye6S+Yvsdmd3tgYalg3LUYZlsjtaXIl3PB5Qef2ZqN/qd5T6bbO6781qn3/Mz5/sjpdjHBECCCDQMgGym+wmuy+ucMO6Yd2w7s6kmYAHVLYcfbY5N7Kb7L4kID/ID/KD/JAiUHLYiir7ye5tsoe/ggACCCCwjgDZTXaXzF/u7HZnd7YykQVkQRRZQHavCxE9v4rsJrvJ7oWA/q1/R+nfUWVvjk8P1w/Z3XNicu4IIIBAeQJkN9ldVHZP024ahn1ypZc8GGH4lgD+v8j4DIEehrHz6Q/DsJuOBcsPAikCs+ze75d+pn6qn73LLOefJtBT/7xHwfnbDDmMo0CBAAIIIIBAMQLj4eCZMn/lj1I3Y3yR3RZbqcVm2LolYNhcf/2R3cVySNVvNK+T8w/ZTXaTvWRvioD+u77/ym9t5jeyu+q44+ARQACB6giQ3R4gXzJ/k912VrJFkiwii6LIoss7dqvr7A64GAGye0GtfqvfUeo3WdqmLHWzRJpADfWX7C4WTbwRAggggMCRANlNdpPdF6WghrAo7Ncd9n1+dXx+ZLeMtIYA2U12nwnID2Q/2Z8mUHLYsNkRc7OD7F6TKrwGAQQQQGArAmQ32V0yf34/oDInkQyLhkXDomExRaBksSK7t4oZbf8dspvsJrtPBOQ3+U1+k99y+Y3sbjsPOTsEEEAgGgGym+wu6Y/Ibl9jkq2BhmXDcpRhmeyOFlfiHY8HVF5/Juq3+h2lft87jpJh1/vfEsDfd5aT3fFyjCNCAAEEWiZAdpPdJfMn2U12k90ZAmRRHFnkAZUtR59tzo3sJrsvCajfceo32Uw2/yRQctix/u6vP7J7m+zhryCAAAIIrCNAdpPdJfMf2U12k91kd5JAJFlEdq8LET2/iuwmu8nuhUCk+k02kt1k9zWBksNe6voju3tOTM4dAQQQKE+A7Ca7S+afr2naTeN4SK70kgdjGDIMGYbiDUO5NlhSpozjuJuOBcsPAikCs+w+HJZ+pn/5Z/pR6te94yhZP73/LQH83fmfqw899I/9MAgUCCCAAAIIFCMw7PeeKfNL/iqVv8huiy1b3HoI+6UuNrLhNdlAdhfLIVW/0bxOzj/qF9lNdqcJkL2GDfknTaCH/kF2Vx13HDwCCCBQHQGy2wPkS84fZDfZTXZnCPQw7NQy7F7esVtdZ3fAxQiQ3Qtq9YvsJ/vJ/hSBksOGzf7XNvvfxY/sLhZNvBECCCCAwJEA2U12l8yfZDfZTXaT3UkCkWQZ2S0jrSFAdpPdZwKR6te7ZFUtm5XOP6bstH7SBHqoH2T3mlThNQgggAACWxEgu8nuorL7uHCnnETqIewJ+32HfZ9/HZ8/2b1VzGj775DdZDfZfSIgv7mzP1ftSw4bNjtibnaQ3W3nIWeHAAIIRCNAdpPdJfPnF9ntOxvJ3jpkb+/DItkdLa7EOx4PqLz+TMhOspPsTBMoGbZ779/On+yOlxgcEQIIIIBAaQJkN9ldMn+T3b7GJFvjyBKyJIos8YDK0nGkvvcju8nuSwL6l/4VpX+RvTFlb+83e7izu76c44gRQACBmgmQ3WQ32X1xBRtWDauGVXemzQTI7pqjTZljJ7vJbrJ7ISA/yU/yk/yUIjAPm2R3mWziXRBAAAEETgTIbrK7qOyept00DPvk9VfyYO4dhPf3NSu933nj/P/XHIdhNx0Llh8EUgRm2b3fL/1M/9A/1M80ATKcDCfD+5bhh3EUKBBAAAEEEChGYDwcPFPmr/xZKn9+kd0WW6nFdu99DNvW39r1N5DdxYJIzW80r5PzD9lNdpPdZHeKgPwhf6zNH63mV7K75rTj2BFAAIH6CJDdHiBfMn+T3XZWslWSLCKLosiiyzt262vtjrgUAbJ7Ia1+q99R6nersrB3Wer80wRqqL9kd6lk4n0QQAABBGYCZDfZTXZf1IIawqKwX3fY9/nV8fmR3ULSGgJkN9l9JiA/kP1kf5pAyWHDZsctgQj8ye41qcJrEEAAAQS2IkB2k90l88/XceFOOYlkWDQsGhYNiykCJYsV2b1VzGj775DdZDfZfSIgv8lv8pv8lstvZHfbecjZIYAAAtEIkN1kd0l/RHb7GpNsDTQsG5ajDMtkd7S4Eu94PKDy+jNRv9XvKPX73nGUDLve/5YA/r6znOyOl2McEQIIINAyAbKb7C6ZP8luspvszhAgi+LIIg+obDn6bHNuZDfZfUlA/Y5Tv8lmsvkngZLDjvV3f/2R3dtkD38FAQQQQGAdAbKb7C6Z/8huspvsJruTBCLJIrJ7XYjo+VVkN9lNdi8EItVvspHsJruvCZQc9lLXH9ndc2Jy7ggggEB5AmQ32V0y/3xN024ax0NypZc8GMOQYcgwFG8YyrXBkjJlHMfddCxYfhBIEZhl9+Gw9DP9yz/Tj1K/7h1Hyfrp/W8J4O/O/1x96KF/7IdBoEAAAQQQQKAYgWG/90yZX/JXqfxFdlts2eLWQ9gvdbGRDa/JBrK7WA6p+o3mdXL+Ub/IbrI7TYDsNWzIP2kCPfQPsrvquOPgEUAAgeoIkN0eIF9y/iC7yW6yO0Ogh2GnlmH38o7d6jq7Ay5GgOxeUKtfZD/ZT/anCJQcNmz2v7bZ/y5+ZHexaOKNEEAAAQSOBMhusrtk/iS7yW6ym+xOEogky8huGWkNAbKb7D4TiFS/3iWratmsdP4xZaf1kybQQ/0gu9ekCq9BAAEEENiKANlNdheV3ceFO+UkUg9hT9jvO+z7/Ov4/MnurWJG23+H7Ca7ye4TAfnNnf25al9y2LDZEXOzg+xuOw85OwQQQCAaAbKb7C6ZP7/Ibt/ZSPbWIXt7HxbJ7mhxJd7xeEDl9WdCdpKdZGeaQMmw3Xv/dv5kd7zE4IgQQAABBEoTILvJ7pL5m+z2NSbZGkeWkCVRZIkHVJaOI/W9H9lNdl8S0L/0ryj9i+yNKXt7v9nDnd315RxHjAACCNRMgOwmu8nuiyvYsGpYNay6M20mQHbXHG3KHDvZTXaT3QsB+Ul+kp/kpxSBedgku8tkE++CAAIIIHAiQHaT3UVl9zTtpmHYJ6+/kgdz7yC8v69Z6f3OG+f/v+Y4DLvpWLD8IJAiMMvu/X7pZ/qH/qF+pgmQ4WQ4Gd63DD+Mo0CBAAIIIIBAMQLj4eCZMn/lz1L584vstthKLbZ772PYtv7Wrr+B7C4WRGp+o3mdnH/IbrKb7Ca7UwTkD/ljbf5oNb+S3TWnHceOAAII1EeA7PYA+ZL5m+y2s5KtkmQRWRRFFl3esVtfa3fEpQiQ3Qtp9Vv9jlK/W5WFvctS558mUEP9JbtLJRPvgwACCCAwEyC7yW6y+6IW1BAWhf26w77Pr47Pj+wWktYQILvJ7jMB+YHsJ/vTBEoOGzY7bglE4E92r0kVXoMAAgggsBUBspvsLpl/vo4Ld8pJJMOiYdGwaFhMEShZrMjurWJG23+H7Ca7ye4TAflNfpPf5LdcfiO7285Dzg4BBBCIRoDsJrtL+iOy29eYZGugYdmwHGVYJrujxZV4x+MBldefifqtfkep3/eOo2TY9f63BPD3neVkd7wc44gQQACBlgmQ3WR3yfxJdpPdZHeGAFkURxZ5QGXL0WebcyO7ye5LAup3nPpNNpPNPwmUHHasv/vrj+zeJnv4KwgggAAC6wiQ3WR3yfxHdpPdZDfZnSQQSRaR3etCRM+vIrvJbrJ7IRCpfpONZDfZfU2g5LCXuv7I7p4Tk3NHAAEEyhMgu8nukvnna5p20zgekiu95MEYhgxDhqF4w1CuDZaUKeM47qZjwfKDQIrALLsPh6Wf6V/+mX6U+nXvOErWT+9/SwB/d/7n6kMP/WM/DAIFAggggAACxQgM+71nyvySv0rlL7LbYssWtx7CfqmLjWx4TTaQ3cVySNVvNK+T84/6RXaT3WkCZK9hQ/5JE+ihf5DdVccdB48AAghUR4Ds9gD5kvMH2U12k90ZAj0MO7UMu5d37FbX2R1wMQJk94Ja/SL7yX6yP0Wg5LBhs/+1zf538SO7i0UTb4QAAgggcCRAdpPdJfMn2U12k91kd5JAJFlGdstIawiQ3WT3mUCk+vUuWVXLZqXzjyk7rZ80gR7qB9m9JlV4DQIIIIDAVgTIbrK7qOw+LtwpJ5F6CHvCft9h3+dfx+dPdm8VM9r+O2Q32U12nwjIb+7sz1X7ksOGzY6Ymx1kd9t5yNkhgAAC0QiQ3WR3yfz5RXb7zkaytw7Z2/uwSHZHiyvxjscDKq8/E7KT7CQ70wRKhu3e+7fzJ7vjJQZHhAACCCBQmgDZTXaXzN9kt68xydY4soQsiSJLPKCydByp7/3IbrL7koD+pX9F6V9kb0zZ2/vNHu7sri/nOGIEEECgZgJkN9lNdl9cwYZVw6ph1Z1pMwGyu+ZoU+bYyW6ym+xeCMhP8pP8JD+lCMzDJtldJpt4FwQQQACBEwGym+wuKrunaTcNwz55/ZU8mHsH4f19zUrvd944//81x2HYTceC5QeBFIFZdu/3Sz/TP/QP9TNNgAwnw8nwvmX4YRwFCgQQQAABBIoRGA8Hz5T5K3+Wyp9fZLfFVmqx3Xsfw7b1t3b9DWR3sSBS8xvN6+T8Q3aT3WQ32Z0iIH/IH2vzR6v5leyuOe04dgQQQKA+AmS3B8iXzN9kt52VbJUki8iiKLLo8o7d+lq7Iy5FgOxeSKvf6neU+t2qLOxdljr/NIEa6i/ZXSqZeB8EEEAAgZkA2U12k90XtaCGsCjs1x32fX51fH5kt5C0hgDZTXafCcgPZD/ZnyZQctiw2XFLIAJ/sntNqvAaBBBAAIGtCJDdZHfJ/PN1XLhTTiIZFg2LhkXDYopAyWJFdm8VM9r+O2Q32U12nwjIb/Kb/Ca/5fIb2d12HnJ2CCCAQDQCZDfZXdIfkd2+xiRbAw3LhuUowzLZHS2uxDseD6i8/kzUb/U7Sv2+dxwlw673vyWAv+8sJ7vj5RhHhAACCLRMgOwmu0vmT7Kb7Ca7MwTIojiyyAMqW44+25wb2U12XxJQv+PUb7KZbP5JoOSwY/3dX39k9zbZw19BAAEEEFhHgOwmu0vmP7Kb7Ca7ye4kgUiyiOxeFyJ6fhXZTXaT3QuBSPWbbCS7ye5rAiWHvdT1R3b3nJicOwIIIFCeANlNdpfMP1/TtJvG8ZBc6SUPxjBkGDIMxRuGcm2wpEwZx3E3HQuWHwRSBGbZfTgs/Uz/8s/0o9Sve8dRsn56/1sC+LvzP1cfeugf+2EQKBBAAAEEEChGYNjvPVPml/xVKn+R3RZbtrj1EPZLXWxkw2uygewulkOqfqN5nZx/1C+ym+xOEyB7DRvyT5pAD/2D7K467jh4BBBAoDoCZLcHyJecP8huspvszhDoYdipZdi9vGO3us7ugIsRILsX1OoX2U/2k/0pAiWHDZv9r232v4sf2V0smngjBBBAAIEjAbKb7C6ZP8luspvsJruTBCLJMrJbRlpDgOwmu88EItWvd8mqWjYrnX9M2Wn9pAn0UD/I7jWpwmsQQAABBLYiQHaT3UVl93HhTjmJ1EPYE/b7Dvs+/zo+f7J7q5jR9t8hu8lusvtEQH5zZ3+u2pccNmx2xNzsILvbzkPODgEEEIhGgOwmu0vmzy+y23c2kr11yN7eh0WyO1pciXc8HlB5/ZmQnWQn2ZkmUDJs996/nT/ZHS8xOCIEEEAAgdIEyG6yu2T+Jrt9jUm2xpElZEkUWeIBlaXjSH3vR3aT3ZcE9C/9K0r/Intjyt7eb/ZwZ3d9OccRI4AAAjUTILvJbrL74go2rBpWDavuTJsJkN01R5syx052k91k90JAfpKf5Cf5KUVgHjbJ7jLZxLsggAACCJwIkN1kd1HZPU27aRj2yeuv5MHcOwjv72tWer/zxvn/rzkOw246Fiw/CKQIzLJ7v1/6mf6hf6ifaQJkOBlOhvctww/jKFAggAACCCBQjMB4OHimzF/5s1T+/CK7LbZSi+3e+xi2rb+1628gu4sFkZrfaF4n5x+ym+wmu8nuFAH5Q/5Ymz9aza9kd81px7EjgAAC9REguz1AvmT+JrvtrGSrJFlEFkWRRZd37NbX2h1xKQJk90Ja/Va/o9TvVmVh77LU+acJ1FB/ye5SycT7IIAAAgjMBMhuspvsvqgFNYRFYb/usO/zq+PzI7uFpDUEyG6y+0xAfiD7yf40gZLDhs2OWwIR+JPda1KF1yCAAAIIbEWA7Ca7S+afr+PCnXISybBoWDQsGhZTBEoWK7J7q5jR9t8hu8nsyksFAAAgAElEQVRusvtEQH6T3+Q3+S2X38jutvOQs0MAAQSiESC7ye6S/ojs9jUm2RpoWDYsRxmWye5ocSXe8XhA5fVnon6r31Hq973jKBl2vf8tAfx9ZznZHS/HOCIEEECgZQJkN9ldMn+S3WQ32Z0hQBbFkUUeUNly9Nnm3MhusvuSgPodp36TzWTzTwIlhx3r7/76I7u3yR7+CgIIIIDAOgJkN9ldMv+R3WQ32U12JwlEkkVk97oQ0fOryG6ym+xeCESq32Qj2U12XxMoOeylrj+yu+fE5NwRQACB8gTIbrK7ZP75mqbdNI6H5EoveTCGIcOQYSjeMJRrgyVlyjiOu+lYsPwgkCIwy+7DYeln+pd/ph+lft07jpL10/vfEsDfnf+5+tBD/9gPg0CBAAIIIIBAMQLDfu+ZMr/kr1L5i+y22LLFrYewX+piIxtekw1kd7EcUvUbzevk/KN+kd1kd5oA2WvYkH/SBHroH2R31XHHwSOAAALVESC7PUC+5PxBdpPdZHeGQA/DTi3D7uUdu9V1dgdcjADZvaBWv8h+sp/sTxEoOWzY7H9ts/9d/MjuYtHEGyGAAAIIHAmQ3WR3yfxJdpPdZDfZnSQQSZaR3TLSGgJkN9l9JhCpfr1LVtWyWen8Y8pO6ydNoIf6QXavSRVegwACCCCwFQGym+wuKruPC3fKSaQewp6w33fY9/nX8fmT3VvFjLb/DtlNdpPdJwLymzv7c9W+5LBhsyPmZgfZ3XYecnYIIIBANAJkN9ldMn9+kd2+s5HsrUP29j4skt3R4kq84/GAyuvPhOwkO8nONIGSYbv3/u38ye54icERIYAAAgiUJkB2k90l8zfZ7WtMsjWOLCFLosgSD6gsHUfqez+ym+y+JKB/6V9R+hfZG1P29n6zhzu768s5jhgBBBComQDZTXaT3RdXsGHVsGpYdWfaTIDsrjnalDl2spvsJrsXAvKT/CQ/yU8pAvOwSXaXySbeBQEEEEDgRIDsJruLyu5p2k3DsE9efyUP5t5BeH9fs9L7nTfO/3/NcRh207Fg+UEgRWCW3fv90s/0D/1D/UwTIMPJcDK8bxl+GEeBAgEEEEAAgWIExsPBM2X+yp+l8ucX2W2xlVps997HsG39rV1/A9ldLIjU/EbzOjn/kN1kN9lNdqcIyB/yx9r80Wp+JbtrTjuOHQEEEKiPANntAfIl8zfZbWclWyXJIrIoiiy6vGO3vtbuiEsRILsX0uq3+h2lfrcqC3uXpc4/TaCG+kt2l0om3gcBBBBAYCZAdpPdZPdFLaghLAr7dYd9n18dnx/ZLSStIUB2k91nAvID2U/2pwmUHDZsdtwSiMCf7F6TKrwGAQQQQGArAmQ32V0y/3wdF+6Uk0iGRcOiYdGwmCJQsliR3VvFjLb/DtlNdpPdJwLym/wmv8lvufxGdredh5wdAgggEI0A2U12l/RHZLevMcnWQMOyYTnKsEx2R4sr8Y7HAyqvPxP1W/2OUr/vHUfJsOv9bwng7zvLye54OcYRIYAAAi0TILvJ7pL5k+wmu8nuDAGyKI4s8oDKlqPPNudGdpPdlwTU7zj1m2wmm38SKDnsWH/31x/ZvU328FcQQAABBNYRILvJ7pL5j+wmu8lusjtJIJIsIrvXhYieX0V2k91k90IgUv0mG8lusvuaQMlhL3X9kd09JybnjgACCJQnQHaT3SXzz9c07aZxPCRXesmDMQwZhgxD8YahXBssKVPGcdxNx4LlB4EUgVl2Hw5LP9O//DP9KPXr3nGUrJ/e/5YA/u78z9WHHvrHfhgECgQQQAABBIoRGPZ7z5T5JX+Vyl9kt8WWLW49hP1SFxvZ8JpsILuL5ZCq32heJ+cf9YvsJrvTBMhew4b8kybQQ/8gu6uOOw4eAQQQqI4A2e0B8iXnD7Kb7Ca7MwR6GHZqGXYv79itrrM74GIEyO4FtfpF9pP9ZH+KQMlhw2b/a5v97+JHdheLJt4IAQQQQOBIgOwmu0vmT7Kb7Ca7ye4kgUiyjOyWkdYQILvJ7jOBSPXrXbKqls1K5x9Tdlo/aQI91A+ye02q8BoEEEAAga0IkN1kd1HZfVy4U04i9RD2hP2+w77Pv47Pn+zeKma0/XfIbrKb7D4RkN/c2Z+r9iWHDZsdMTc7yO6285CzQwABBKIRILvJ7pL584vs9p2NZG8dsrf3YZHsjhZX4h2PB1RefyZkJ9lJdqYJlAzbvfdv5092x0sMjggBBBBAoDQBspvsLpm/yW5fY5KtcWQJWRJFlnhAZek4Ut/7kd1k9yUB/Uv/itK/yN6Ysrf3mz3c2V1fznHECCCAQM0EyG6ym+y+uIINq4ZVw6o702YCZHfN0abMsZPdZDfZvRCQn+Qn+Ul+ShGYh02yu0w28S4IIIAAAicCZDfZXVR2T9NuGoZ98voreTD3DsL7+5qV3u+8cf7/a47DsJuOBcsPAikCs+ze75d+pn/oH+pnmgAZToaT4X3L8MM4ChQIIIAAAggUIzAeDp4p81f+LJU/v8hui63UYrv3PoZt62/t+hvI7mJBpOY3mtfJ+YfsJrvJbrI7RUD+kD/W5o9W8yvZXXPacewIIIBAfQTIbg+QL5m/yW47K9kqSRaRRVFk0eUdu/W1dkdcigDZvZBWv9XvKPW7VVnYuyx1/mkCNdRfsrtUMvE+CCCAAAIzAbKb7Ca7L2pBDWFR2K877Pv86vj8yG4haQ0BspvsPhOQH8h+sj9NoOSwYbPjlkAE/mT3mlThNQgggAACWxEgu8nukvnn67hwp5xEMiwaFg2LhsUUgZLFiuzeKma0/XfIbrKb7D4RkN/kN/lNfsvlN7K77Tzk7BBAAIFoBMhusrukPyK7fY1JtgYalg3LUYZlsjtaXIl3PB5Qef2ZqN/qd5T6fe84SoZd739LAH/fWU52x8sxjggBBBBomQDZTXaXzJ9kN9lNdmcIkEVxZJEHVLYcfbY5N7Kb7L4koH7Hqd9kM9n8k0DJYcf6u7/+yO5tsoe/ggACCCCwjgDZTXaXzH9kN9lNdpPdSQKRZBHZvS5E9PwqspvsJrsXApHqN9lIdpPd1wRKDnup64/s7jkxOXcEEECgPAGym+wumX++pmk3jeMhudJLHoxhyDBkGIo3DOXaYEmZMo7jbjoWLD8IpAjMsvtwWPqZ/uWf6UepX/eOo2T99P63BPB353+uPvTQP/bDIFAggAACCCBQjMCw33umzC/5q1T+Irsttmxx6yHsl7rYyIbXZAPZXSyHVP1G8zo5/6hfZDfZnSZA9ho25J80gR76B9ldddxx8AgggEB1BMhuD5AvOX+Q3WQ32Z0h0MOwU8uwe3nHbnWd3QEXI0B2L6jVL7Kf7Cf7UwRKDhs2+1/b7H8XP7K7WDTxRggggAACRwJkN9ldMn+S3WQ32U12JwlEkmVkt4y0hgDZTXafCUSqX++SVbVsVjr/mLLT+kkT6KF+kN1rUoXXIIAAAghsRYDsJruLyu7jwp1yEqmHsCfs9x32ff51fP5k91Yxo+2/Q3aT3WT3iYD85s7+XLUvOWzY7Ii52UF2t52HnB0CCCAQjQDZTXaXzJ9fZLfvbCR765C9vQ+LZHe0uBLveDyg8vozITvJTrIzTaBk2O69fzt/sjteYnBECCCAAAKlCZDdZHfJ/E12+xqTbI0jS8iSKLLEAypLx5H63o/sJrsvCehf+leU/kX2xpS9vd/s4c7u+nKOI0YAAQRqJkB2k91k98UVbFg1rBpW3Zk2EyC7a442ZY6d7Ca7ye6FgPwkP8lP8lOKwDxskt1lsol3QQABBBA4ESC7ye6isnuadtMw7JPXX8mDuXcQ3t/XrPR+543z/19zHIbddCxYfhBIEZhl936/9DP9Q/9QP9MEyHAynAzvW4YfxlGgQAABBBBAoBiB8XDwTJm/8mep/PlFdltspRbbvfcxbFt/a9ffQHYXCyI1v9G8Ts4/ZDfZTXaT3SkC8of8sTZ/tJpfye6a045jRwABBOojQHZ7gHzJ/E1221nJVkmyiCyKIosu79itr7U74lIEyO6FtPqtfkep363Kwt5lqfNPE6ih/pLdpZKJ90EAAQQQmAmQ3WQ32X1RC2oIi8J+3WHf51fH50d2C0lrCJDdZPeZgPxA9pP9aQIlhw2bHbcEIvAnu9ekCq9BAAEEENiKANlNdpfMP1/HhTvlJJJh0bBoWDQspgiULFZk91Yxo+2/Q3aT3WT3iYD8Jr/Jb/JbLr+R3W3nIWeHAAIIRCNAdpPdJf0R2e1rTLI10LBsWI4yLJPd0eJKvOPxgMrrz0T9Vr+j1O97x1Ey7Hr/WwL4+85ysjtejnFECCCAQMsEyG6yu2T+JLvJbrI7Q4AsiiOLPKCy5eizzbmR3WT3JQH1O079JpvJ5p8ESg471t/99Ud2b5M9/BUEEEAAgXUEyG6yu2T+I7vJbrKb7E4SiCSLyO51IaLnV5HdZDfZvRCIVL/JRrKb7L4mUHLYS11/ZHfPicm5I4AAAuUJkN1kd8n88zVNu2kcD8mVXvJgDEOGIcNQvGEo1wZLypRxHHfTsWD5QSBFYJbdh8PSz/Qv/0w/Sv26dxwl66f3vyWAvzv/c/Whh/6xHwaBAgEEEEAAgWIEhv3eM2V+yV+l8hfZbbFli1sPYb/UxUY2vCYbyO5iOaTqN5rXyflH/SK7ye40AbLXsCH/pAn00D/I7qrjjoNHAAEEqiNAdnuAfMn5g+wmu8nuDIEehp1aht3LO3ar6+wOuBgBsntBrX6R/WQ/2Z8iUHLYsNn/2mb/u/iR3cWiiTdCAAEEEDgSILvJ7pL5k+wmu8lusjtJIJIsI7tlpDUEyG6y+0wgUv16l6yqZbPS+ceUndZPmkAP9YPsXpMqvAYBBBBAYCsCZDfZXVR2HxfulJNIPYQ9Yb/vsO/zr+PzJ7u3ihlt/x2ym+wmu08E5Dd39ueqfclhw2ZHzM0OsrvtPOTsEEAAgWgEyG6yu2T+/CK7fWcj2VuH7O19WCS7o8WVeMfjAZXXnwnZSXaSnWkCJcN27/3b+QeV3b9/Jy+QRw8En/tt9scDxeOFJEeEAAIIrCAwPXjNo/qf6x+/PaDSAzoLfrMG2V0QtrAfM+yT/XXIfg+oXJFOOn8J2U12XxIg+8l+sp/sTxGw2fFrtye7O09NTh8BBBC4JUB2y8+t5Geym+zO1niyQLGLUuzIbnHsEQGym+wmuxcC+rf+HaV/u9kj5s0eZPejVOH/I4AAAv0RILvlx1by4/cDKodhnzwfdz74mpPcYjdMK4aliuEwDLtH/6y2vzjijC8JzLJ7f/zncecf/Uv/0r/SBPRv/btU/773Ptbf59ffn3FMLoFX/pn6/EcffMmJ8IIAAgggEJXAg6+pejSP5/rH+OePZ8r8/Xz/7yX/kd0WW7bMkkVkURRZRHZHTUSxjmteJ2T3iYD6rX5Hqd9k5y0Bstew9+lhk+yOlV8cDQIIIBCCANmd/Rjkt3ryG9lNdpPdGQJkURxZdHnHbogg4CBCEiC7l49F/YpTv8hesvcnAcNSPcNSq9cv2R0yxjgoBBBA4LMEyG6yO0OgpvxKdpPdZDfZnSQQSZaR3Z/NPbW8O9lNdp8JRKpfrcqyXF3A32ZLbn3UNCy1ev2S3bUkG8eJAAIIFCRAdpPdrcju43lMOYlkWDGsGFbSBAxr5e7MIrsLhpyK34rsJrvJ7hMB+U1+k9/ktxSBOb+S3RWHHYeOAAIIvIsA2U12k90nAmRfOdl3b83hj3+uGrckO8judyWadv6uB1Ref5YtXf/63y0B/V//76X/u/7fc/2T3e3kH2eCAAIIbEaA7Ca7yW6ym+y32UE2lJMNHlC5WYRp9g+R3WT3JQGy353NuWKnf5fr32T1e2T1q5sdZHezcciJIYAAAv9OgOwmu8luspvsJrsNy+WGZbL73zNLL79JdpPdZPdCgOwn+8n+NAH5zdeY9JKNnCcCCCDwFAGym+xuRXZP024ax0PydITBcjLPnS8x73x59c4Zv58m8IyMGcdxNx0Llh8EUgRm2X04LP1M/9K/1N9t6u+9v/JM/fb7twTwsxnx6c2I/e/fyUN4lLfmfpv9kdeENQQQQKBKAo+m7Uf1P9c/fu/3ninzS/4plX++yG6LrdRiM+wadn8SeGbYJ7urzEvFD3peJ+cfspvsJrvJ7hSBZ/qP/CK/vJJfoq4fsrt4RPGGCCCAQHgCZLf5qZX5iey2s5ItuGSRYhel2F3esRs+JTjAjxEguxf06rf6HaV+R5V9NvvTBNSP9usH2f2xqOKNEUAAgbAEyO72+38v+ZfsJrvJ7gwBw16cYk92h81EoQ6M7Ca7zwTU7zj1m+y+JeDOcv+y8tPDJtkdKr44GAQQQCAEAbJbfm7lZpn5C9emnEQyLFrsrSx2w3bdwzbZHSL/hD8IspvsJrtPBOQ3+U1+SxOw2fBrR3aHjzQOEAEEEChOgOyWH1vJj2S3O7uzBdSwrNhFKXZkd/GsU90bekDl9UemfqvfUeq3zea6N5t9fm1+fmR3dTHHASOAAAJvJ0B2mx9amR/IbrKb7M4QIIviFHsPqHx7tqn+DchusvuSgPodp36TpW3K0lzTcP3Fv/7I7upjjxNAAAEENidAdsfv3/JXmsBl/iS7yW6ym+xOEog0rJLdm2eZ5v4g2U12k90LgUj1m+wmu38S8DUin//OcrK7uRjkhBBAAIGXCZDdZHduEdWU374fUDkM++T51HQyhinDlGHqmkBL1+8wDLvpWLD8IJAiMMvu/X7pZy2t/3vnTGYKo62EUflNfpPfyue3P+OYLCFzP839PMpj+d+WYxBAAAEEwhJ4tf5nfn/888czZf6aX0rNL2S3xZats2TR5++8yX1APckusjtsJAp1YPM6Of+oX+qX+pkm0FP/sFl0S8Dnb9gku0PFFweDAAIIxCBAdmc/B/mpnvxEdpPdZHeGAFkWR5Zd3rEbIwk4iogEyO7lU1G/4tQvspVs/UnAsFTPsNTq9Ut2R0wxjgkBBBD4MAGym+zOEKgpv5LdZDfZTXYnCUSSZWT3h4NPJW9PdpPdZwKR6lersixXFvC32ZJbHzUNS61ev2R3JcHGYSKAAAIlCZDdZHcrsvt4HlNOIhlWDCuGlTQBw1q5O7PI7pIpp973IrvJbrL7REB+k9/kN/ktReDd+fWQ+T7wehOGI0cAAQTaJzAeDmRvI7K31c363AK9nH/m54eQ3RlahkXDomExxrBIdrcfrl49Qw+ovCaof+lf+leM/tX7sOH8bwm8WzZ/uv6T3a8mGr+PAAIIfIYA2W1+aGV+ILt9jUm2in46LHt/xfa8QD2g8jOBp6Z3JbvJ7ksC+of+0UpYJ4v7k8W11y+yu6b05FgRQACBhQDZLT+3kp/JbrKb7M4QqH3YaOn4yW4x7BEBspvsJrsXAi3Vf7KX7P1JoPU7o2u/fsnuR4nF/0cAAQRiEiC7ye5mZPc07aZxTH8vjzBZ7juJDXOGOcPcNYHL+jMev/9xOhYsPwikCMyy+3DxPXP6l/6Vu1pql0mO3zDSyjAi/7aXf/fDIKwggAACCFRIYNjvs0ctf8qfteTPL7LbYq1lsd47TsW2n/VLdleYlj5wyPM6Of+Q3WQ32Z0moH/20z/lp1sC1v971z/Z/YEA5C0RQACBDQiQ3eanVuYnsvvXe8Me2aJYtFIsPj0sX96xu0Ef9ycaJUB2Lx+s/qP/6D9kf4oA2Sv/v/NmF7K70ZDltBBAoHkCZLf5oZX5gewmu7MFmyxR7KIUO7K7+Wy1yQmS3WT3mYD+pX9F6V+f3iz2/rcEyP73yn6ye5NI448ggAACxQmQ3fJzK/n5+wGVOYlkWLTYW1nshr26hz2yu3jWqfINyW6ym+w+EZDf5Df5LU2A7Ca7qww5DhoBBBB4MwGyW35sJT+S3e7szpZLw7JiF6XYkd1vTjYN/HkPqLz+ENVv9TtK/bbZXPdms8/P5/eTwKPNAnd2NxCqnAICCHRJgOw2P7QyP5DdZDfZnSFAFsUp9h5Q2WXeeuqkyW6y+5KA+h2nfpOlZOmzstT1W/f1S3Y/FV+8GAEEEAhDgOyuu//KT8vnR3aT3WQ32Z0kEKlYkt1hMlDYAyG7yW6yeyEQqX6T3WQ32X1N4NGd0bVfv2R32KjkwBBAAIEsAbKb7M4tkJryy/cDKodhnzyfmk7GMGWYMky1O0wNw7CbjgXLDwIpArPs3u+XfqZ/vfc7WWuXMY5fmG8lzMu/8m+0/HsYR2EFAQQQQKBCAuPhkD1q+Vl+riU/k91/LdZaFuu941Rs+1m/ZHeFaekDhzyvk/MP2U1255ag/tFP/5AfbglY/9b/O/M/2f2BAOQtEUAAgQ0IkN3mp1bmJ7Kb7M6WRLJIsYtS7C7v2N2gj/sTjRIgu5cPVv1Wv6PUb7KZbP5JgGxvW7aT3Y2GLKeFAALNEyC7zQ+tzA9kN9lNdmcIkEVxij3Z3Xy22uQEyW6y+0xA/Y5Tv8luspvsvibQuuwnuzeJNP4IAgggUJwA2S0/NyO7jycy5SSSYdFib2WxG7brHrbJ7uJZp8o3JLvJbrL7REB+k9/ktzSB1mXzp69/srvKCOWgEUAAgR3ZLT+2kh+/yO62/xnhp8Ou91cstyqWZLf09YiAB1ReE1J/1d+t6q/N4ro3i31+Pr+fBN4t+8nuR4nF/0cAAQRiEiC7zQ+tzA9kt68xyVZZskSxi1LsPKAyZiCKdFRkN9l9SUD/0r+i9C+ymWwuLZs/Xf/I7kjpyLEggAAC6wmQ3fJzK/mZ7Ca7ye4MgU8PC95/aTZk9/qQ0usryW6ym+xeCOgfhpVWhhWbBfVtFpDdvSYx540AArUTILvlx1by4/cDKsfxkDyfd/8zN8OYi6mVi8kw9t5hbBzH3XQsWH4QSBGYZffhsPQz/cvXdOWuFvlD/pA/0gTUT/Xzlfq5HwZhBQEEEECgQgLDfp89avlZfq4lP5PdvyzWWhbrveNUbPtZv2R3hWnpA4c8r5PzD1lD1rwia6wf68f6SROQv/rJX/+Sv8nuDwQgb4kAAghsQIDsln9byb9kN9mdLYmGfcUuSrG7vGN3gz7uTzRKgOxePlj1W/2OUr//RZZZv9av9VvvZgPZ3WjIcloIINA8AbJb/molf5HdZDfZnSFg2I5T7Mnu5rPVJidIdpPdZwLqd5z6TXbfEnBntDujc02v9vr1nwdfYzJ/7VjuJ/e1dfnf3CRK+CMIIIBAbAKZGvroaz8f1d/hP//Jnrv8Ir/Ukl++H1CZk0i1hy3Hb9htZWeqd1lAdsfOXFGOjuwmu8nuEwH5R/6Rf9IEDOvvHdbJ7iipyHEggECTBMju5Mcq/8q/58VBdruzO1v/FQvFIsqwTHY3GdU2PSkPqLzGqX6r31Hqd++btc7/lgDZ/F7Z/On6T3ZvGm/8MQQQQOCaANlNdicIfLr/R3p/spvsJrszBCJdrL0Pyx5QKeU9IkB2k92XBNRvsp/sTxMgm9uWzZ+uf2T3o8Ti/yOAAAIvECC7yW6y+y6By/xDdpPdZDfZXUWzILtfCESd/CrZTXaT3QuBT8su72+zwWZDv5sNZHcnwctpIoDAZwiQ3VX4i95vVvz0+X8/oHIY9snF4s4Pd37kKrhh1jBbapgdjg87evTAjc+kDe8ahcAsu/f7pZ/pX/qX/pUmoH/r36X69733sf7aXn+H//43Gw0e5bnsA9SOw6sfBBBAoGcCuSr46AGUj+rvfw+HLFr9u+3+3dL8THb/tVgNO/3eeVNTsyK7e4506899Xifnn5aaNVl0S6Cm+uXz8/n9JGD9yt8t52+ye31u8UoEEEDgWQJkN3+TImD+XW72IrvJ7mxtdbG4MzK3QEoO65d37D4bCLy+HwJk9/JZq9/qd5T6TfaT/WT/NYGS+ekT1x/Z3U/ucqYIIFCeANlNdpPd9wlczr9kN9lNdmcIkEVxZBHZXT5I1fiOZDfZfSagfsep35+QbT5/n7/NnjSBd8t2srvGBOWYEUCgFgJkN9lNdq+Q3ceXTDmJZFgwLBgWPjcsuP6W64/sriV+ffY4yW6ym+w+EdA/5Df5TX5LESC7P5tVvDsCCCDwCgGym+wmu8luw94vw55hr41hj+x+JRL18bseUHn9OZOd+p/+10b/u3cW75aV6of68Ur9cGd3H7nLWSKAwGcIkN1kN9lNdpPdZHe2AxkW63lAlAdUfiZM1fSuZDfZfUmArCPrXpF11o/1Y/38+2YR2V1TenKsCCBQGwGym+wmu8luspvsJrszBGqS/WR3bTGs/PGS3WQ32b0QIGvJWrL232Wt6+e164fsLp+BvCMCCPRDgOwmu8nuFbJ7mnbTOB6Sq6UmGXbvJBx/PXfu+vxuCVi/y/odx3E3HQuWHwRSBGbZfTgs/cz1o/7nrhYy6zWZhR9+ZDqZniLwn2HIhpW5X+d+cnkv/5syEgIIINABgUwNfTQvP6q/w3/+kwUo/8l/teS/L7LbYq1lsd47TsW2n/VLdncQ3DY4xXmdnH/IbrKb7HbniztfHt/54mYDNxv8JPBq/yS7Nwg0/gQCCCCQIkB2J9fGq/3L77czP5LdvuYj20Rc7O1c7LVvFlzesSv5IJAiQHYvZNRv9ZvsJ/vJfrL/E/mP7JbTEEAAgTcSILvJ7gQB898y/5HdZDfZnSGgWMSRRWT3GwNTQ3+a7Ca7zwTU7zj1+xOyzefv87fZ87nNHrK7oWDlVBBAIB4BspvsJrvvErjM//PXnk05iWRYMCwYFj43LLj+luuP7I6XsyIeEdlNdpPdJwL6h/wmv8lvKQLv/hpAsjtiQnJMCCDQDAGym+wmu8luw55hz7DXxrBHdjcTz952Ih5QeY1W/9P/9L82+t+9s3i3rFQ/1I9X6gfZ/bao4w8jgAACux3ZTXaT3WS3sC6svxLWrZ8468cDKiW7RwTIbrL7koD6Had+k7W3BMjqfh6w3eP6J7sfJTXdteUAACAASURBVBb/HwEEEHiBANlNdpPdZLdh17BLdrdxZxvZ/UIg6uRXyW6ym+xeCMg/8o/800b+qVGWk92dBC+niQACnyFAdpPdZPdj2T1Nu2kY9snF4s4Td57kKrhh2jBdapge/q+9O0xTW1eCMEzWlD1BlhR815Q1ccdweGyDpbEHY1rSy98wDC5L1dVfK+PT6XD5MiwvCqQU6GH38TjUM/VL/VK/0gqo3+r3XvV77vdYf3Wvv/P//pcNK9/lub6eJ1+yoCBIAQo0rkCuI87655du3/nv/87nrLrqd931u6b++RfYbbFqdpz8SSkQyezA7sZT3cLL79fJ/RVp/YI9zwoIy/KH/CF/lJA/+Pd6/wa7F4YWb6MABSjwAwXAbvlJfppXYNz/g93/NJuaTWZZglmOT+z+IBP4kUYUALuHGw32O9me2/aGDfKf/Cf/lZD/Hr/j8c+fb08m/vRkY+Y8eSMpymVSgAKbKZD4Hyrfnaxe4l9/Rv+T9fH7yv/yv/x/UwDsBruzfs4smWUUswS7N4teVX8Q2A123xVQv9SvKPVr7nsYNhg2GDb8bNgAdlcd41wcBepRAOyevZfyj/yzV/7pB9iXHETSLGoWNYtpBZj1fmYNdteT/d55JWA32A123xSQ3+Q3+U1+SylQcn4Fu9+Zonw2BSiwmQJgN9g9o0DJ9be/nJK+P9jtZHfWzzXLmuUozTLYvVn0qvaDPKByemv5N/+O4t9z36OksOz7Pyvg/u037Lf+pgqA3dXGOBdGgboUALvBbrD7SYE98yPYDXaD3RkFwKI4sMgDKuvKf++4GrAb7B4rwL/j+DdYBxY/KrBns2P91bX+wO53JCifSQEKbK4A2A12g91gd85YNKua1dz60Cy1c7II7N48glX3gWA32A12DwrIT/KT/JRWQH4sNz+C3dXFNxdEgToVALvBbrD7s7D7cjlcuu6cNBhhsNww2N9U98/9q2WY1HXd4bunV9eZlFzVUgV62H0+D/WM//G/Wvxv7jrAbDAbzAazUwrUXP/+fuXBvt7nXt/lxeTPfzXGXhSgAAW2UCDlJlv4V/f3L36XUKDm+tdfsvy/PP//AruXi6XZfFbAZrN+9mq2we4tYlf9n9Gvk/tL2AG7we60Auq3+r1X/Zaf5edHBV7xH7C7/iznCilQgwJg9/xdfMX/wV6we836Abt/a3Y0O2kFwLI4sGx8YreGAOQa3qMA2D3oyr/i+BfYB/ZtCfs0e5q9Nc1ebf4Ddr8nP/lUClBgWwXAbrC7tvpbWv4Eu8HurKuDJWBJlJORYPe2AazWTwO7we67AuqX+hWlfml2DDsMO6YKvALrwe5aE5zrokBdCoDdYLf899n81//Bs0sOImkWNYuaxbQCr4T10iZjnzZrsLuuAPiuqwG7wW6w+6aA/Ca/yW/yW0qBkvMr2P2uBOVzKUCBLRUAu8HuT/OT1n8/2O1kd9bTNcua5SjNMti9Zfyq87M8oHJ6X/k3/47i362Hbdf/rEDJsNVhhc/+GRmwu84M56ooUJsCYDfYLf99Nv+B3WA32J1RACyKA4s8oLK2CLj99YDdYPdYAf4dx7+F/c+GffrT/1GBkocNYPf2+cknUoAC2ysAdoPd8tdn8xfYDXaD3WB3UoFIsAjs3j6E1faJYDfYDXYPCkTyb2H/s2Gf/vQHu6cK9Hlh9nVJ4anaEpProQAF3q0A2A12y1+fzV/XB1SeTsfkXi958t9flO//G8wGs4uA2d8Vg9PpdLhoQt6dy4r+/L55PR6Hesb/+X9uQYPBTn7n1gf/4B/8I63AJ/3z+OfPt3kwCbP/u6RUnkwg8KKzkS9PAQp8SIHEUO27fnaJf/0Z9Ts1DTPxO/xyy/wNdv/T7Gn20gpsudnmfssnm4X++5T0+8HuDwW1wn5tv07uL/sXrAKrYsKq0uqP+v2sQEn5wf2r6/6B3YUFM1+XAq0qAHbP3nn5AX/ciz+C3WB3tvyARWBRFFg0PrHbamZy3d8rAHYPGvFv/h3Fv8HGumCjYUVZhwVq239g9/dZyDsoQIEACoDdYPeMAmD/frAf7Aa7we6MAmBRHFgEdgcIbQV8BbAb7L4rwL/j+HdtsA3sBXs1q/s1q4/+AXYXEMZ8RQpQ4HAAu8FusPtJgT3z0/UBlTmIpFnULDoZllZgz83aOiwAu6XGJQqA3WA32H1TQH6T3+Q3+S2lQMn5Fexekoa8hwIU+LgCYDfYDXaD3Tkj0qxp1jRrmrVeAbD745Et/BfwgMrpLVI/1U/1U/2sEXb211QyrPX9X7t/YHf4OOYLUoACvQJgN9gNdoPdYHdaAbACrAArbgp4QKXc+J0CYDfYPVZA/VQ/1U+wH+yfV6DkYQHY/V0a8u8UoEAIBcBusBvsBrvBbrA7pQBYAVbc1wbYHSK2hf4SYDfYDXYPCqif6ifYD/bXCPvB7tBRzJejAAXuCoDdYDfY/VnYfbkcLl13TppSyZP//qJ8/889QIb+1t+W+6/rusPly7C8KJBSoIfd5/NQz7Zcf3O/E0wEE8FEMLFGmCi/yW+R6+ffrzzY1/vc67u8mPx5OVPIpAAFNlIg1bVu4V/d37/4XUKByPWr/8r6x/36x19g935igyXPCtjs1t9SWAR2b5S8Kv+Yfp3cX8KOYWduuas/6s/S+iO/yW+PCvCPOv2jPzXev34My/9bKHM/n8fzlYczl0eBqArMDM622v9/jsfZq1Y/6qwf+s+bApH6b7D7t82m2UsrEGmztt5sj0/sRs1LvtfnFQC7h3vAv8B+sD+tgGZT/pV/5d9HBcDuz+c434ACuyoAdj/JrX/QP9TSP4DdYHe2njA7ZhfF7MDuXaNfsb8M7Aa7nayId7Ki9WGt639WwLDBsCHisAHsLjb++eIU+JkCYDfY/aAA/lUP/+r/R9UlB5Hc7HputmZLs/WoQEnNJtj9swzX2k+B3WA32A129wrIr/JrlGG9/F1O/ga7W0uNrrd5BcBusBvsnihQU34Gu53szta4mha7ZqOcZmMOVoHdzcfRbwXwgMqpRPwb7AP70gqUNOyVX8rOL+5fOfcP7P42ankDBepSAOwGu8FusDvlapoF/w0xV/HAFrBlK9jiAZV1Zct3XA3YDXaPFVB/1J+t6g9YWQ6snBuWu3/u36MCqf4V7H5HOvOZFAisANgNdoPdYDfYPa8A2A/2g/1pBbaETWB34KAY5KuB3WA32D0osKX/goVg4VJYCDbfFLD/yhy2gd1BAp2vQYG9FAC7wW6wu17YfbkcLqfTMWknYC6YC+buA3PBhDxMOJ1Oh8uXYXlRIKVAD7uPx6GeqV/ql/qlfqUUACPLhJFgOpj+zmHC3667Ctznidzruzw6+/MyrABLgXAKzHWWW+3/7u/f2euVP+SP3EbQv27Xv/4Cu202my2tALPZzmzmVF5T7MHucPkw5Bfq18n9Zf/G2b+v7n8//6zAGv+kH/0eFbB+5H/5/1kBsDtktPOlKPA2BcDuZ2n1T/qn3IYrKT+C3f+EXWEX7E4pEKnYjU/svi3x+ODiFQC7h1sYaf+CrWAr2DpVoKRmwf61f1vZv2B38THQBVBglQJgN9j9qID+qR7YD3aD3dmCYLPXs9lLb1bB7lXZrdk3g91g910B9Uv9quVkSun12/cHy0uB5WB3s/HRhTeqANgNdoPdUwVq6p/6P0h2yUGkmi5W2Ba2SwnbYM1NgbH/gN2NptCVlw12g93889k/5R/5R/6ZKuBkvf/ZOueLYPfK0OXtFChcAbAb7Aa7we6kjQmLwmKuxhmWOFmXWx9r/APsLjxN7vD1PaCy3rAC1oK1YC1YO1ZgTX7gH/xjqX+A3TuENb+CAoEUALvBbrC73v7RyW5/xiRbbsBqsHorWP1qs+kBlYGSYdCvAnbXG1Ze9Q8/D3YthV3398k/8k+U/MO/9vMvsDtowPO1KPAmBcBusBvsrrd/BLvBbrA7o4BmN06zC3a/KeVV9LFgd71hBezZD/aAvTcF1P849d/+t//3GlaB3RWFQpdCgQUKgN1gN9hdb/94fUBl152TVuC/CfozJbk6oRnUDObWx5b+0XXd4fJlWF4USCnQw+7zeahnW66/ud/J//jfXv5n/WnGNGP1NmNgfhyYf/zz5/plvsubfd7IveZ+Pv8Tsh0FKPARBWb28lb7/8/xOHtJ+gf9g/4hrcCW/TvY/dtms9n22WxgxWuwAuz+SAQs7pf26+T+2rJY2r+v7V/60Q+sBWvHCmj29R8R+w+wu7jY5wtT4DUFwO4n/fRPDrvmNlVJ+Q3sBruzBYLZMbsoZjc+sftaqvHTNSsAdg93l3/z7yj+bdhh2GHYYdhRwrAD7K45Ibo2CswoAHaD3Q8K6J/q6Z/AbrAb7M4owOzimB3YLaIuUQDsBrvvCvDvOP4NdoPdYDfYDXYvSTHeQwEK7KoA2A12g90TBWrqn64PqMxBpJouVrOl2dJsldtsgd27Rr9ifxnYDXaD3TcF5DewP2fkJf03VPldft8rvzvZXWz888Up8DMFwG6wG+wGu1PuISz7m3u5yqLZ1mxv1WyD3T/LcC39lAdUTu82/+W/W/kv2Ag27gUbDasMqz45rAO7W0qNrpUCXwqA3WA32A12g93zCoD9YD/Yn1ZgS9jmAZUi6XcKgN1g91iBLf0H7AV7wd6pAvKv/Ftj/gW7v0ta/p0ClSkAdoPdYDfYDXaD3Zp9zf4nm32wu7Jw+YbLAbvBbrB7UADsd7I/Z7NgNVhdI6y+X9NP/Q/sfkM485EUiKwA2A12g931wu7L5XA5nY5JCxKGhWFhOK3AT8P0q2G8xZ8/nU6Hy5dheVEgpUAPu4/HoZ6pX+qX+qV+pRRQvw0DDAPSCqifZdXPv103uZl9Hsq9vsvTk5+XvQXvBQqMO7RN19/X7+7+/q0Wxs1Jy3/L8t/He+j+xbl/v8BuYV/YF/ZTCkQya7B7QdL0lkO/Tu6vSOt37taAbeqv+qv+llB/+dezAvybf0fyb7BbAP60AmD3cAf0H3Fgp/zSdn4Bu/8Ja5HCmsnYVAHFciiW4xO7nw50fn9cBcBuYduw46aA+qHZyjk1WCv/y//1DNvA7ri5tJVvBnbL3/K3/B2t/wC7we5sDdYsa5ajNMtgdytx+bXrBLuFbWFb2I4Wtp0savtkkfvv/j8qsPWwCex+LTv66dcVALvlb/lb/o6Wv/s/6HXJQSSwE+yMAjs1C203C2D360G0hU8Au4VtYVvYjha25Ze284v77/6D3S0k0LavEeyWv+Vv+Tta/ga7nezOVmbDDsOOKMMOsLvtEL3k6j2gcqoS/+bfUfwb7AP73g37Hj+f//G/lvzPye4lKdF73qkA2A12g91gN9j94LJb/zcuYRfsGCug2amn2fGAyndG1Do+G+zm//xfs6XZ0mxFa7YMewx73j3sAbvryLElXwXYLX/JX/JXtPzlZLeT3dm6ChbXA4tLb7bA7pIj8D7fHewGu8FuzZZmS7MVrdkqPX/5/vFhPdi9T870W9IKgN3yl/wlf0XLX9cHVHbdOelcTl57WnuusIPhYHhufWzpH13XHS5fhuVFgZQCPew+n4d6tuX6m/ud/I//7eV/1t+zAvaf/Wf/pRVQ/9rq345//kwWw3d5uc9Ludf45/PvlEkp8J8CozW15frrP/3P8TiRWf1X/9V/9T+lwDj/gN2/mQWzYBZLzOLTsAXsFqeXKNCvk/tLs99Ws/+4Ptx/9z/nGZpl+Vf+lX9LyL9L8jfYvSQhes9bFQC79R//KSB/y99R8jfYDXZn6x6zYlZRzGp8YvetYc2HF60A2D3cPv7Nv6P49xJYY1gxVcD+tX/t37QChlXTYRXYXXR0rePLg91gN9h9VUB+i5PfwG6wG+zOKMCs4pgV2F1HFn73VYDdYPddAf4dx7/B7mcFwDony3P1kH/xrzXDDrD73enS53+rANgNdoPdYHcw2H99QGUOIglbwtaasOVklpNZYwW29A+w+9uY6Q1fCoDdYDfYfVNgS/8Fq8HqRwXAerAerE8rsLf/gt0i8McVALvBbrBb/g7Wf4DdTnZna+PeYQ0sB8tTsBzs/niMDf8FPKCSf7xr2Ab2gr1g71QBsBvsBrvB7vDB0BfcTwGwG+wGu8FusFtYHiugWdAsaBaWNQseULlfXi31N4HdYDfYPShgWO1/5uW8XP6UP+XPZfmzhGGnk92lJteKvjfYDXaD3WA32A12g92DApotzdbSZgvsrigQv+lSwG6wG+wGu+8KgP1gP9ifVkD+rit/g91vCpY+drkCYDfYDXaD3dFg9+VyuJxOx6SRCUN1haHHG60Z1AyW0gyeTqfD5cuwvCiQUqCH3cfjUM/UL/Vr6TBt7n3Wj/Vj/aQVkB/lx1Ly49z3rG39/u26yWX2eSj3+i5PT35e9ha8Fygw7tA2XX9fv7v7+3fyDWrbv4/yyp/yp/y5Tf78BXYLq8Kqky8pBSIVW7B7QdL0lkO/Tu6vSOu3hWZbWJ8qYP1pVjQr2zQr/PNZAbBH/zZeFWC3APxpBcDu4Q7If/Kf/Bcj/4Hd/4QlsBvsLgF2j0/sfjrQ+f1xFQC7hW3DjpsCmi3NlmYrRrMF1oP1jwpsPawAu+Pm0la+Gdgtf8vf8ne0/gPsBruzNVizrFmO0iyD3a3E5deuE+wWtoVtYTta2AY7wc53w87Hz5ff28rvYPdr2dFPv64A2C1/y9/yd7T83f9Br0sOIglLbYUlYXmqgPUfZ/2D3a8H0RY+AewWtoVtYTta2Aa7wW6we6rA1iebW+9fwO4WEm7sawS75W/5W/6Olr/Bbie7s5UT7I0De1tvlsHu2CE3wrfzgErDurEC6pf6lfMlsM2f8cutD/7BP0ryD7A7Qgpt+zuA3WA32A12g90PdUCzodnQbKQV0GwNzZYHVLYdopdcPdgNdoPdmi3NlmYrWrPV+mEF1/+swNb9L9i9JCV6zzsVALvlL/lL/oqWv5zsdrI7W/fAVidbopxsAbvfGVHr+GywG+wGuzVbmi3NVrRmC+x9P+x9/A36F/1LlP7F/rf/HxXYetjF//Q/+p/5/uf6gMquOyfrgc3o5HUuLAiTwuReYbLrusPly7C8KJBSoIfd5/NQz9Qv9Uv9Siugfqvfe9Xvud9j/Vl/1l9aAflFfpFf5JeUAuqn+ql+LqufYPdvm8VmWbZZNGvPCuxZbMFukHuJAv06ub80i5pFzaJmUbM4r8Ce9Vt++mx+oj/9HxWw//X/+n/9f0oB/ZP+qZb+CewGu7P8iNkxuyhmNz6xuwR6ek+bCoDdw33n3/w7in+DbWAb2DZVAGwEG8FGsBFsnFdAfpVf5VeHVbY4rAJ2g91gd0YBxTZOsQW724TXa68a7Aa77wrw7zj+DXaD3WA32D1WAOwH+8F+sB/sB/vnFJDf5fethh3XB1TmIJLFZrFttdg0u5rdV5pdsHst9m3z/WA32A123xSQ3+Q3+S2tANgKtoKtYCvYCraCrc8KyI/yYy35Eex2sjtLxJgds4tidmB3m/B6zVV7QOVULf7Nv6P4t2G3Yfcrw27rx/qxfqYKGNYY1hjWGNYY1hjWGNbkhzVgN9gNdmcUAIviwCIPqFyDfdt8L9gNdo8V4N9x/BusBCvBSrByrABYC9aCtWAtWAvWgrV5WCs/v5afwW6wG+wGu5MKRIJFYHebAHvNVYPdYDfYPSgQyb+F9dfCOv3oZ1hgWGBYMChgWGJYYlhiWGJYYljy3bDk+oDK0+mY3C2KiWKimCgmEYrJ6XQ6XL4My4sCKQV62H08DvVM/VK/1C/1K0L9+i6Mg9lgNpgNZoPZYPZdAflVfpVf5Vf59XWYD3b/8998c2aq2Cq2UYot2A1yL1GgXyeahZsC/Jt/R/FvsPdZASfv5W/5O62A+qV+qV9gH9j3OuyTv+SvRwVayp9gN9id5UfCprAZJWyOT+wugZ7e06YCYPdw3/k3/47i35otzVbLzZb1b/1b/1MFWoIt9r/9b//b/2MF+N9+hx3AbrAb7M4oABbFgUVgd5vweu1Vg91g910B/h3HvzX7mn3NvmZfsz8oAHbsBzvUH/VH/VF/1J8268/1AZU5iKRZ1Cw6GZZWQFjdL6yC3Wuxb5vvB7vBbrD7poD8Jr/Jb/JbSgH5db/8CraCrWAr2Aq2tglb+f9n/R/sdrI7S8Q0y5rlKM0y2N0mvF5z1R5QOVWLf/PvKP4t7H827NOf/mAb2Aa2gW13BQy7DLty+VD/oH+opX8Au8FusDujALOPY/YeULkG+7b5XrAb7B4rwL/j+DfYCraCrWAr2Aq2gq03BcBmsBlsTisgv8vvW8F2sBvsBrvB7qQCkYoN2N0mwF5z1WA32A12DwpE8m+wG+wGu8FusBvsBrvBbrDfsMOwx7Bnr2HP9QGVXXdO/j6L0WLcazFqhjXDuWa467rD5cuwvCiQUqCH3efzUM/UL/VL/XJyJqWAYYCTQ1udHJJf5VfDHMMcwxzDHMMcwxzDnFjDHLD7t7Av7KcVAMviwDKwG+ReokC/ToRNYVPYjBU25/Yu2Cx/yp/yZ0oB+TtO/ubfzwqoX+qX+qV+qV/zCkSq32A32J3lR5EWq7DVdtgan9hdAj29p00FwG4naww7DDsMOww75FewNJeCwEqwEqwEK8HK+LAS/2mb/7x6/8FusBvsziigWYrTLIHdbcLrtVcNdoPdYDfYDXaD3fJbnPz2arPq58GORwUMKwwrDCsMKwwrDCvmFBjnv+sDKnMQSVgUFp2MSCsgbO0XtsDutdi3zfeD3WA32A12g91gt/5F/6J/0b+kFNC/7de/GVYZVhlWTRXgP/v5D9jtZHeWiGkWNAtRmgWwu014veaqPaByqhb/5t9R/Fuzq9nV7Gp2xwpo9vdr9vkv/+W//Jf/DgqoP+3UH7Ab7Aa7MwqARXFgkQdUrsG+bb4X7Aa7xwrw7zj+DbaALWAL2AK2gC13BcCmdmCT+q/+q//q/6fqP9gNdoPdYHdSgUiwCOxuE2CvuWqwG+wGuwcFIvm3Zlezq9nV7H6q2eU//If/8B/+Y9hm2HZToKVh4/UBlafTMckTWhJDGBKGhKG4Yeh0Oh0uX4blRYGUAj3sPh6HeqZ+OTmU2y1gsJPfufXBP/gH/0grwD/5J/9MK6B+qB/qh/qRUkD93K9+gt3/9hN7bsFb7PQXFpeFRbAb5F6iQL9OTO7bm9wbVhtWG1bHHVbLv88KyP/yv/y/LP/zD/7xqAD/5J/8k3+mFBgPG8FusDvLj0ymTaajTKbHJ3aXQE/vaVMBsHu47/ybf0fxb7ACrAArpgqANWANWAPWLIE16qf6qX6qn2MF5Ifl+QHsBrvB7owCYFEcWAR2twmv11412A123xXg33H8W7OuWdesa9Y164MCYMVyWKF+qB/qh/qhfqgfdwXW1M/rAypzEEmzqFnMwaY1i01YEVZeCStg91rs2+b7wW6wG+y+KSC/yW/yW1oB+RVszO0P/sk/+Sf/TCmgfqgf6kdagUj1E+x2sjtLxCItVrC8bVgOdrcJr9dctQdUTtXi35p1zbpmXbM+rwBYAVaAFWXACv1f2/2f++/+PyqgfqvfS+s32A12g90ZBcCiOLDIAyrXYN823wt2g91jBfh3HP/WrGpWNatTBTTrmvWlzTr/5J/8k3+OFVA/1A/1Y9mwFuwGu8FusDupQCRYBHa3CbDXXDXYDXaD3YMCkfwbrAFrwBqwBqwZFACrwCqwahmskh/kB/lBfvhpfrg+oLLrzkm3UYwVY8VYMU4psCdM6brucPkyLC8KpBToYff5PNQz9Uv9Ur/Urwj1a+477Fk//f5nBejvf37k6oP8ID/ID/KD/DCvgPqpfpZSP8Hu3xZrKYtVs9Z2swZ2g9xLFOjXyf2lWdWsalY1q5pVzar82HZ+dP/d/0cFwDr8A/9IK6B/0j/V0j+B3WB3lh8xO2YXxezGJ3aXQE/vaVMBsHu47/ybf0fxb7AJbAKbpgqAbWAb2Aa2pRSQ3+Q3+c1hDYc1Xj+sAXaD3WB3RgFhI07YALvbhNdrrxrsBrvvCvDvOP4NdoPdYDfYPVYA7Af7wX6wH+yfV0B+lV8NO7YZdlwfUJmDSDabzWazbbPZNPuvNftg91rs2+b7wW6wG+y+KSC/yW/ym/yWUgBsBpvBZrAZbAab5xSQH+XHWvIj2O1kd5aIMTtmF8XswO424fWaq/aAyqla/Jt/R/Fvw97Xhr30o9+jAmA1WA1Wg9VgNVgNVj8roP/R/9xXBdgNdoPdGQWYZRyz9IDKNdi3zfeC3WD3WAH+Hce/wVqwFqydKgBWg9VgNVgNVoPVYDVY/aiA/mW7/gXsBrvBbrA7qUAkswW72wTYa64a7Aa7we5BgUj+DXaD3WA32D1WAOwH+8F+sB/sB/vBfrD/nbD/+oDK0+mYdFthRBgRRoSRCGHkdDodLl+G5UWBlAI97D4eh3qmfqlf6pf6FaF+aeY0c+9s5gyTDJMMkwyTDJMGBeR/+V/+l/97BcDuf9sdkxc2hU1h831hE+wGuZco0K+T+0vYFXaFXWEX7J5XwMl/+T/nj+qn+ql+qp/qp/ppWG9YX/KwHuwGu7P8SNgVdqOE3fGJ3SXQ03vaVADsdrLFsOOmgPqtfkep35plzXLJzbL1a/1av1MFDEsNSw1L0wrI33HyN9gNdoPdGQWYVRyzArvbhNdrrxrsBrvBbrAb7DfskN/i5DewGCwGi8HisQJgOVgOloPlKQW2zG/XB1TmINKWv0zYEXaEHWHnp2EH7F6Lfdt8P9gNdoPdYDfYDXbrX8DuXAoC28A2sA1s2wO24V/4F/71Of4FdjvZnSVimgXNQpRmAexuE16vuWoPqJyqxb/5dxT/1uxp9jR7n2v27D/7z/6z/3562Ih/8A/+wT9K9Q+wG+wGuzMKgEVxYJEHVK7Bvm2+F+wGu8cK8O84/q1Z1ixrljXLKynSrQAAGX9JREFUpTbL/It/8S/+xb8GBfzPGP8zJkcaIvVfYDfYDXaD3UkFIpkV2N0mwF5z1WA32A12DwpE8m+wCCwCi8AisAgsuisAloFlpcAy+UV+kV/KzS/XB1R23TnpN4qRYqQYpRUAE/Y7Odh13eHyZVheFEgp0MPu83moZ+qX+qV+qV8pBdTv/er33D2gP/1z/qx+q9/qt/qtfs8roH6qn+pnWoFxfgC7f9ssNsuyzaJZe1Zgz2ILdoPcSxTo14mTQzcFwAKwACwAC8ACsEB+/Wx+pT/9HxXYs3+y/qw/62+qgP3XDv8Eu8HuLD8CS8CSKLBkfGJ3CfT0njYVALuH+86/+XcU/9Zsa7Y125rtsQJgQzuwgf/zf/7P//n/oID6t1/9A7vBbrA7owBYFAcWgd1twuu1Vw12g913Bfh3HP8GO8AOsAPsADvAjrsCYM9+sEf9VX/VX/W31fp7fUBlDiJpFjWLToalFRDW9gtrYPda7Nvm+8FusBvsvikgv8lv8pv8llJAft0vv4KNYCPYCDa2Chv5H//7pP+B3U52Z4mYZlmzHKVZBrvbhNdrrtoDKqdq8W/+HcW/NTuanU82O9af9Wf9gY1g46CAYZdhVy4f6h/0D7X0D2A32A12ZxRg9nHM3gMq12DfNt8LdoPdYwX4dxz/BhvBRrARbAQbwca7AmAr2Aq2phWQX+XXWmDzp/M/2A12g91gd1KBSMUW7G4TYK+5arAb7Aa7BwUi+fenw67fD7aD7WA72A62g+03BQwbDBsMGwwbUgrU1D9cH1B5Oh2Td5sZMkNmyAwjmOHpdDpcvgzLiwIpBXrYfTwO9Uz9Ur/UL/UrQv2a+w41NROGCYYJhgmGCYYJhgmGCYYJhimGSZH6b7D7n/8mkYMBkRarZvFZgZaaZbAb5F6iQL9OhG1hW9gWtuUXwy7DLsMuw655BVrqH/SPbfeP7r/7/6gA/2uHf4LdYHeWH2kWNYtRmsXxid0l0NN72lQA7HayyLDDsMOww7BDfpVfo+RXsA1sA9umCoCN7cBG/sf/Pul/YDfYDXZnFNAsxWmWwO424fXaqwa7wW6wG+wGu8Fu+S1OfgM7wI5Pwg7rz/qz/gwbxgoYtrQzbLk+oDIHkYRFYdHJiLQCzHI/swS712LfNt8PdoPdYDfYDXaD3foX/Yv+Rf+SUkD/tl//Zthg2GDYYNjwqWED2O1kd5aIaRY0C1GaBbC7TXi95qo9oHKqFv/m31H8W7Or2dXsanY/1ezyH/7Df/gP/xkUMOwx7Mn1BzX1j2A32A12ZxSoabOXHvY9oHIN9m3zvWA32D1WgH+D/WB/WgHNrma3lWa39Pzr+4P1YD1YD9aD9XcF5Lfl+Q3sBrvBbrA7qUAkWAR2twmw11w12A12g92DApH8G6wBa8AasAasAWvAmpsCYNVyWCU/yA/yg/zw0/xwfUBl152TPIEZM+McbNJMOzmXWx9b+kfXdYfLl2F5USClQA+7z+ehnm25/uZ+J//jf3v5n/X3rID9Z//Zf2kF1D/9m/4trYD6oX6oH+pHSgH1s576CXb/ZvbMntmXYPZgN8i9RIF+ndxfwko9YQXsBXsfFQAr5Ff5VX4tIb+qX+qX+jVVQP1Wv9Vv9XuP+g12g91ZfgQWgUVRToaMT+wugZ7e06YCYPdw3/k3/47i32AP2AP2gD1jBcAusAvsArv2gF3yh/whf7SbP8BusBvszigAFsWBRWB3m/B67VWD3WD3XQH+Hce/NZuaTc1mu82m/W//2//2v2HXoIBhn2GfYd8+w77rAypzEEmzqFl0MiytgGK1X7ECu9di3zbfD3aD3WD3TQH5TX6T3+S3lALy6375FewH+8F+sB/sB/vvCqi/+9VfsNvJ7iwR0yxrlqM0y2B3m/B6zVV7QOVULf7Nv6P4N9gD9oA9YA/YA/aAPTcFwK79YJf8IX/IH+3mD7Ab7Aa7MwqARXFgkQdUrsG+bb4X7Aa7xwrw7zj+rdnUbGo222027X/73/63/w27DLsMuwy79h72gd1gN9gNdicViASLwO42Afaaqwa7wW6we1Agkn+DXWAX2AV2gV1gF9gFdu0Nu+QP+UP+aDd/XB9QeTodkzzBf7Px32xysEkz7eRcbn1s6R+n0+lw+TIsLwqkFOhh9/E41LMt19/c7+R//G8v/7P+nhWw/+w/+y+tgPqnf9O/pRVQP9QP9UP9SCmgftZTP8Huf8ye2TP7Eswe7Aa5lyjQrxMnh5wccnLI3wTVrNTTrBj2GPY8KgBW6l/1r/rXEvpX9Uv9Ur+mCuxZv8FusDvLjzSLmsUoJ0PGJ3aXQE/vaVMBsHu47/ybf0fxb82eZk+z97lmz/6z/+w/+2+swJ6wif/wH/7Dfz7lP2A32A12ZxQAi+LAIrC7TXi99qrBbrD7rgD/juPfml3NrmZXs/upZpf/8B/+w3/4z6CAYYf/GZPrr2vqn64PqMxBpJouVtgRdoSdcsMO2L0W+7b5frAb7Aa7bwrIb2B/rgpodjW7rTS7+j/9n/6v3P7P/rV/7V/796fDKrDbye4sEdMsa5ajNMtgd5vwes1Ve0DlVC3+zb+j+LdmVbOqWdWs/rRZ5R/8g3/wD/4xKGBYbVhtWJ1WYNz/gt1gN9idUQAsigOLPKByDfZt871gN9g9VoB/x/FvsAqsAqvAKrAKrLorANaBdWDdMlgnP8lP8tPP8xPYDXaD3WB3UoFIsAjsbhNgr7lqsBvsBrsHBSL5t2ZNs6ZZ+3mzZv/YP/aP/WNYZFhkWHRTwLDMsGzpsOz6gMquOyffbzFZTEsXkzAujL8zjHddd7h8GZYXBVIK9LD7fB7qmfqlfqlfaQXAcCffc/uDf/JP/sk/UwqoH+qH+pFWQP1UP9XPGPUT7P6tWClWilVKgUjFGuwGuZco0K8TJx+cfHDyw8mXSPVrzrvAIvlb/pa/S8jf/OtZAf7Nv/k3/+bf8wpEyt9gN9id5UeRFquw1XbYGp/YXQI9vadNBcDu4b7zbydLnCyJcbJEfmk7v7j/7v+jAmApWAqWgqVgaXxYqn6XXb/BbrAb7M4oABbFgUVgd5vweu1Vg91g910B/h3HvzULZTcL7p/7B9ZOFQCrwWqwGqwGq8HqOQX0H3H6j+sDKnMQyc2Kc7M0G5qNlpsNsHst9m3z/WA32A123xSQ3+S3XBUA68A6sA6sA+vAOrDuWQH5SX6Sn9IKlJQfwW4nu7NEjNkz+yhmD3a3Ca/XXLUHVE7V4t/8O4p/G9Yb1rc8rLf+rX/rf6pASbDE/rV/7V/7d6wA/yrnsADYDXaD3RkFwKI4sMgDKtdg3zbfC3aD3WMF+Hcc/wYLwAKwACwACwYFwJJyYIn6pX6pX+qX+lVm/QK7wW6wG+xOKhAJFoHdbQLsNVcNdoPdYPegQCT/BgvAArAALAALyoQF/Jt/82/+zb/5912Bkoa11wdUnk7HJE8o6WIUY8VYMa63GJ9Op8Ply7C8KJBSoIfdx+NQz9QvJ6dyuwUMdvI7tz74B//gH2kF+Cf/5J9pBdQP9UP9UD9SCqif+9VPsPvffmLPLXiLnf7C4rKwCHaD3EsU6NdJiZNnw1rDWsPaeoe18t+zAvKv/Cv/Lsu//IN/PCrAP/kn/+SfKQUM24ZhG9gNdmf5kc1iMh1lMj0+sbsEenpPmwqA3cN959/8O4p/gzVgDVgzVQCsAqvAKrAKrJpXQH6VX+XXtALyw/L8AHaD3WB3RgHFNk6xBbvbhNdrrxrsBrvvCvDvOP4NdoPdYDfYPVZAs768Weef/JN/8k/+OSigfqgfS4fF1wdU5iCSZlGzaLJmspZSYM9iA3avxb5tvh/sBrvB7psC8pv8Jr/JbxHyG1gL1oK1YC1YC9beFdiTH6g/bdcfsNvJ7iwR0yxrlqM0y2B3m/B6zVV7QOVULf7Nv6P4t2aj7WbD/Xf/wU6wE+wEO8HOmwJgr5PJuXyuf9uufwO7wW6wO6MAs9nObF5tdj2gcg32bfO9YDfYPVaAf8fx71f938+DpWApWAqWgqVgKVgKFoPlhgWGBUuHBWA32A12g91JBSLBIrC7TYC95qrBbrAb7B4UiOTfYDVYDVaD1WA1WA1Wg9VgNVgNVoPVS2H1q/3D9QGVXXdO/j6L0WLcazG+upj9fN3NdNd1h8uXYXlRIKVAD7vP56GeqV/ql/qVVgAMd/I9tz/4J//kn/wzpYD6oX6oH2kF1E/1U/2MUT/B7t+KlWKlWKUUiFSswW6Qe4kC/TpxcsjJISeHnByKVL/mvAsskr/lb/m7hPzNv54V4N/8m3/zb/49r0Ck/A12g91ZfhRpsQpbbYet8YndJdDTe9pUAOwe7jv/drLEyZIYJ0vkl7bzi/vv/j8qAJaCpWApWAqWxoel6nfZ9RvsBrvB7owCYFEcWAR2twmv11412A123xXg33H8W7NQdrPg/rl/YO1UAbAarAarwWqwGqyeU0D/Eaf/uD6gMgeR3Kw4N0uzodloudkAu9di3zbfD3aD3WD3TQH5TX7LVQGwDqwD68A6sA6sA+ueFZCf5Cf5Ka1ASfkR7HayO0vEmD2zj2L2YHeb8HrNVXtA5VQt/s2/o/i3Yb1hfcvDeuvf+rf+pwqUBEvsX/vX/rV/xwrwr3IOC4DdYDfYnVEALIoDizygcg32bfO9YDfYPVaAf8fxb7AALAALwAKwYFAALCkHlqhf6pf6pX6pX2XWL7Ab7Aa7we6kApFgEdjdJsBec9VgN9gNdg8KRPJvsAAsAAvAArCgTFjAv/k3/+bf/Jt/3xUoaVh7fUDl6XRM8oSSLkYxVowV43qL8el0Oly+DMuLAikFeth9PA71TP1yciq3W8BgJ79z64N/8A/+kVaAf/JP/plWQP1QP9QP9SOlgPq5X/0Eu//tJ/bcgrfY6S8sLguLYDfIvUSBfp2UOHk2rDWsNaytd1gr/z0rIP/Kv/LvsvzLP/jHowL8k3/yT/6ZUsCwbRi2gd1gd5Yf2Swm01Em0+MTu0ugp/e0qQDYPdx3/s2/o/g3WAPWgDVTBcAqsAqsAqvAqnkF5Ff5VX5NKyA/LM8PYDfYDXZnFFBs4xRbsLtNeL32qsFusPuuAP+O499gN9gNdoPdYwU068ubdf7JP/kn/+SfgwLqh/qxdFh8fUBlDiJpFjWLJmsmaykF9iw2YPda7Nvm+8FusBvsvikgv8lv8pv8FiG/gbVgLVgL1oK1YO1dgT35gfrTdv0Bu53szhIxzbJmOUqzDHa3Ca/XXLUHVE7V4t/8O4p/azbabjbcf/cf7AQ7wU6wE+y8KQD2Opmcy+f6t+36N7Ab7Aa7Mwowm+3M5tVm1wMq12DfNt8LdoPdYwX4dxz/ftX//TxYCpaCpWApWAqWgqVgMVhuWGBYsHRYAHaD3WA32J1UIBIsArvbBNhrrhrsBrvB7kGBSP4NVoPVYDVYDVaD1WA1WA1Wg9VgNVi9FFa/2j9cH1DZdefk77MYLca9FuOri9nP191Md113uHwZlhcFUgr0sPt8HuqZ+qV+qV9pBcBwJ99z+4N/8k/+yT9TCqgf6of6kVZA/VQ/1c8Y9RPs/q1YKVaKVUqBSMV6Dnb3cHP8eoTh/r09ffp14uSQk0NODjk5FKl+zdVYsEj+lr/l7xLyN/96VoB/82/+zb/597wCkfI32A12Z4+JRlqswpaw9aiAsClsCpvCprAZP2yq3+q3+j1VQH6RX+QX+UV+kV/mFMBfnAzP1Qf5YXl+ALvBbrA7o4Bio9goNmkFFNvlxRbsA/vAPrBvrAD/5J9gJ9gJdoKdYOezAvpv/bf+W/+dUmBNfr4+oHL8N04fP5TZMBtmw2y2MBuwD+wD+8A+sG9QYE1Y45/8k3/yT/7JP+8KqB+GZYZlhmWGZYZlhmX5YRnY7WR3rlYeDDsMOww7DDsMO+YV0GxqNjWbmk3NpmZTs5lvNg3rDOsM6wzrDOsM6wzrbgroH/frH8FusBvszigA9oP9YD/YD/aD/WANWAPWgDVgDVgD1oA1YBVYB1buByvlb/n7lfwNdoPdYDfYnVQA7Af7wX6wH+wH+zUbmo1Xmg3rx/qxfgyLDIsMiwyLDIsMiwyL9hwWXR9QeTodk938nl9GGBaGhWFhWBgWhoVhYVgYFoblTyencsNWw3jDeMN4w3jDeMN4/Ag/wo/woxQ/Arv/CYvCorAoLAqLwqKwKCwKi4aNho2GjYaNho2GjYaNho2GjWkFDFvxM/ysDH4GdoPdub3qD+j7MzfZ9aHYK/aKfRnFfu5b2r/2r/1r/xp2G3Ybdht2G3Ybdht2G3Ybdht21zbsBrvBbrA7o4CTDU42ONngZENKAbAYLAaLwWKwGCwGi8FisBgsBovBYrAYLK4NFpd+WOr6gMrj0d/s1qxoVjQrmhXNimZFs6JZ0axoVjQr/oyDww4OOzjs4LCDww7zCjjs4bCHwx4Oe5TAT8FuJ7tzXuXPmPgzJtn1IewIO8KOsFNC2Cn9ZILv/6yA+qP+qD/qj/rjsJLDSg4rOazksJLDSg4rzR1WArvBbrA7o4CTPU72ONnjZI+TPU72gM1g86MCYDvYDraD7WA72A62g+1gO9gOtseE7WA32A12g91JBcB+sB/sB/vBfrAf7Af7wf6pAoYdhh2GHYYdhh2GHYYdhh2GHXGHHdcHVHbdOVmthDlhTpgT5oQ5YU6YE+aEubhhDowGo8FoMHqsgP5N/6Z/07/p3/Rv+jf9W8v9G9jtbzLnstBBWBaWhWVhWVgWloVlYbnlsGz9W//Wv2HfWAH/89H/fMz1R/pn/bP+Wf+sf/58/wx2g91gd0YBYUVYEVaEFWHl82EFbAQbwUawEWwcFABbwVawNa2A/k3/pn/Tv+nf9G9gN9gNdoPdSQWERWFRWBQWhUVh0bDBsMGwwbDBsMGw4a6AYYthi2GLYUtKAfwAP4jCD64PqDyf/c1um3VeAWbFrKKYFdgCtoAtYAvYAraALTcFwCawCWwCm/Sv+tc5BfTv+nf9e1oB+amd/AR2O9md80J/s/ufYqlYKpYpBYSFdsKCYZNhk2GTYZNhk2GTYZNhk2GbYaP8L/8bthq2ljBsBbvBbrA7o4DJONgP9oP9YP+8ApodzY5mR7NTQrNjWGdYZ1hnWGdYZ1hnWGdYZ1jX1rAO7Aa7wW6wO6kA2A/2g/1gP9gP9oOFYCFYCBaChWAhWAgWgoVtwUL5T/4rOf9dH1B5Oh2T3byTW05uObnl5JaTW/MKGAYYBhgGGAYYBhgGaAY1gyU3g9av9Wv9GmYZZhlmGWYZZtU2zAK7/U3mHKvxACQn/7PrA+wFe8FesBfsBXvBMrAMLAPLwDKwDCwDy2qDZXP5Rv+r/9X/ltH/gt1gN9idUcD/bPA/G3IbRNgRdoSdMsKOZuVZAf7Fv/gX/zKsNKw0rDSsNKw0rDSsNKyscVgJdoPdYDfYnVQA7Af7wf60AmAhWAgWgoVgIVgIFoKFYCFYCBaChTXCQodFHBZ5VKCk/vf6gMrj0d/s1qxoVjQrmhXNimZFs6JZ0azcFDDsNOw07DTsTClQUrML1oA1JcMa69f6tX6nCqg/Dhvl8um4fwG7nezOrRXNrr/ZnV0fio1is7TYCOvCurAurI8VUD/UD/UjrYBhk2GTYZNhk2HTvALyg/wgP8gPKQXA7pEyzJJZMktmucQswVqwFqwFa8HaQQH5SX6Sn+Qn+WleAcMKwwrDCsMKwwrDCvzgs/zAyW4nu3O12MluJ7uz6wPsADvADrAD7AA75hQAe8AesAfsAXvAHrDns7CH/vR3WMdhnVYP61wfUNl152QaA7PALDALzAKzwCww61kBMA/MA/PAPDAPzAOTwCQwCUxqFSbxP/7H//hfVP8Du53czfXqB8MOww7DDsMOww7DDsMOw45HBQx7DHsMewx7DHsMe8BOsBPsBDujwk79S9v9C9gNdoPdGQXAfrAf7Af7wX6wX1huOyy7/+6/Yc9UAcMuwy7DLsMuwy7DLsMuw67Iwy6wG+wGu8HupAJgP9gP9oP9YD/YD/aCvWAv2DtWAOwGu8FusBvsBrvBbrA7NOz++nKX89nf7GbWzJpZM+vIZg02gU1gE9gENg0KgG1gG9gGtunf9G/6N/2b/m2qgMNqDqvl8lFL+fkX2K1Z0CxoFjQLmgXNgmZBs6BZGCugWdIsaZbSCrTULBq2G7Ybthu2G7Ybtt8VUP/ww1L4Idjtz5jk1qoHVP7T7Gp2NbspBYQdYaeUsAPWgDVgDVgD1oA1YM1NAflNfpPf0goY9uMf+Ecd/APsBrvB7owCip1ip9jVUezATrAT7AQ7wU6wE+wEO8FesBvsB/vBfrA/pQD+Uw//uT6g8nQ6Jle7YqAYKAaKgWIwr4BiWE8xBMPBcDAcDAfDwXAwHAwHw8Fw/AP/wD/wD/yjfP4BdvszFTkv99/cnPzPrg+wF+zNLRDNgmZBs6BZ0CyU3yzMXYH6r/6r/2kF5B/5R/6Rf+Qf+Ud+elZgz/wIdoPdYHdGAWFVWBVWhVVhVVgVVj8bVulP/0cF9myWrD/rz/qbKmD/GXYZdhl2pRTAT/CTKPwE7Aa7wW6wO6mAYqVYRSlWYAPYADaADWMFwBawBWwBW8CWeQXkd/ldfndYx2Edh3Va75+vD6g8Hv3NbmFJWJpTQFgUFoVFYVFYFBZbD4uu37DJsMmwybBpUMCwzbDNsM2wDT/Cj/CjZwUi8bP/A+2fNU+Xj0DVAAAAAElFTkSuQmCC;" vertex="1" parent="1">
          <mxGeometry x="546.5" y="360" width="1467" height="725" as="geometry" />
        </mxCell>
        <mxCell id="6Hgkl4rPXNiPrs-pAOjM-2" value="(0, 0)" style="text;html=1;align=center;verticalAlign=middle;whiteSpace=wrap;rounded=0;fontFamily=Architects Daughter;fontSource=https%3A%2F%2Ffonts.googleapis.com%2Fcss%3Ffamily%3DArchitects%2BDaughter;fontSize=32;" vertex="1" parent="1">
          <mxGeometry x="410" y="290" width="130" height="30" as="geometry" />
        </mxCell>
        <mxCell id="6Hgkl4rPXNiPrs-pAOjM-3" value="(32, 0)" style="text;html=1;align=center;verticalAlign=middle;whiteSpace=wrap;rounded=0;fontFamily=Architects Daughter;fontSource=https%3A%2F%2Ffonts.googleapis.com%2Fcss%3Ffamily%3DArchitects%2BDaughter;fontSize=32;" vertex="1" parent="1">
          <mxGeometry x="1215" y="290" width="130" height="30" as="geometry" />
        </mxCell>
        <mxCell id="6Hgkl4rPXNiPrs-pAOjM-5" value="(64, 0)" style="text;html=1;align=center;verticalAlign=middle;whiteSpace=wrap;rounded=0;fontFamily=Architects Daughter;fontSource=https%3A%2F%2Ffonts.googleapis.com%2Fcss%3Ffamily%3DArchitects%2BDaughter;fontSize=32;" vertex="1" parent="1">
          <mxGeometry x="2020" y="290" width="130" height="30" as="geometry" />
        </mxCell>
        <mxCell id="6Hgkl4rPXNiPrs-pAOjM-7" value="(0, 32)" style="text;html=1;align=center;verticalAlign=middle;whiteSpace=wrap;rounded=0;fontFamily=Architects Daughter;fontSource=https%3A%2F%2Ffonts.googleapis.com%2Fcss%3Ffamily%3DArchitects%2BDaughter;fontSize=32;" vertex="1" parent="1">
          <mxGeometry x="410" y="1120" width="130" height="30" as="geometry" />
        </mxCell>
        <mxCell id="6Hgkl4rPXNiPrs-pAOjM-8" value="(32, 32)" style="text;html=1;align=center;verticalAlign=middle;whiteSpace=wrap;rounded=0;fontFamily=Architects Daughter;fontSource=https%3A%2F%2Ffonts.googleapis.com%2Fcss%3Ffamily%3DArchitects%2BDaughter;fontSize=32;" vertex="1" parent="1">
          <mxGeometry x="1220" y="1120" width="130" height="30" as="geometry" />
        </mxCell>
        <mxCell id="6Hgkl4rPXNiPrs-pAOjM-9" value="&lt;div style=&quot;font-size: 32px;&quot;&gt;(64, 64)&lt;/div&gt;" style="text;html=1;align=center;verticalAlign=middle;whiteSpace=wrap;rounded=0;fontFamily=Architects Daughter;fontSource=https%3A%2F%2Ffonts.googleapis.com%2Fcss%3Ffamily%3DArchitects%2BDaughter;fontSize=32;" vertex="1" parent="1">
          <mxGeometry x="2030" y="1120" width="130" height="30" as="geometry" />
        </mxCell>
        <mxCell id="6Hgkl4rPXNiPrs-pAOjM-10" style="edgeStyle=orthogonalEdgeStyle;rounded=0;orthogonalLoop=1;jettySize=auto;html=1;exitX=0.5;exitY=1;exitDx=0;exitDy=0;" edge="1" parent="1" source="6Hgkl4rPXNiPrs-pAOjM-9" target="6Hgkl4rPXNiPrs-pAOjM-9">
          <mxGeometry relative="1" as="geometry" />
        </mxCell>
        <mxCell id="6Hgkl4rPXNiPrs-pAOjM-11" value="" style="whiteSpace=wrap;html=1;fillColor=none;dashed=1;dashPattern=8 8;strokeWidth=5;perimeterSpacing=0;" vertex="1" parent="1">
          <mxGeometry x="550" y="360" width="1460" height="720" as="geometry" />
        </mxCell>
        <mxCell id="6Hgkl4rPXNiPrs-pAOjM-12" value="" style="endArrow=none;dashed=1;html=1;rounded=0;entryX=0.5;entryY=0;entryDx=0;entryDy=0;exitX=0.5;exitY=1;exitDx=0;exitDy=0;dashPattern=8 8;strokeWidth=6;" edge="1" parent="1" source="6Hgkl4rPXNiPrs-pAOjM-11" target="6Hgkl4rPXNiPrs-pAOjM-11">
          <mxGeometry width="50" height="50" relative="1" as="geometry">
            <mxPoint x="1140" y="740" as="sourcePoint" />
            <mxPoint x="1190" y="690" as="targetPoint" />
          </mxGeometry>
        </mxCell>
      </root>
    </mxGraphModel>
  </diagram>
</mxfile>
